<svg xmlns="http://www.w3.org/2000/svg" viewBox="0 0 3452.9776 1137.1255"><defs><style>.b9937d4c-04e2-4e86-8717-e9000efc08d8{fill:#00aeef;}.b411ae9d-f82d-40e5-a80a-eaab0ef1ef7a,.fdc35fca-a974-453d-a4c9-340170f74bcc{fill:none;stroke-miterlimit:10;}.fdc35fca-a974-453d-a4c9-340170f74bcc{stroke:#ed1c24;stroke-width:0.5px;}.b411ae9d-f82d-40e5-a80a-eaab0ef1ef7a{stroke:#000;stroke-width:5px;}</style></defs><title>holiday-ornament-templates-multi</title><g id="f981812e-ce56-49e1-9071-d28c584aa7c7" data-name="Layer 1"><g id="afebccd6-3fd2-4887-8c7c-9d5fb8e0637d" data-name="Menorah"><path class="b9937d4c-04e2-4e86-8717-e9000efc08d8" d="M1018.4809,878.7655l-46.1393,46.1393a43.2259,43.2259,0,1,0-50.36,50.36l-46.1392,46.1392a14.451,14.451,0,0,0,0,20.377l61.1308,61.1308a14.305,14.305,0,0,0,1.9493,1.6148,115.088,115.088,0,0,0,113.0976,22.8442,14.1921,14.1921,0,0,0,3.6659,6.2929l6.7222,6.7222a14.26,14.26,0,0,0,20.1668,0l54.8878-54.8878a14.26,14.26,0,0,0,0-20.1668l-6.7223-6.7223a14.1922,14.1922,0,0,0-6.2923-3.6664,115.0883,115.0883,0,0,0-22.8448-113.097,14.3,14.3,0,0,0-1.6148-1.9494l-61.1308-61.1308A14.4509,14.4509,0,0,0,1018.4809,878.7655ZM914.5571,917.48a21.613,21.613,0,1,1,0,30.5654A21.6131,21.6131,0,0,1,914.5571,917.48Z" transform="translate(-5.7084 -7.4372)"/><path class="fdc35fca-a974-453d-a4c9-340170f74bcc" d="M1090.2855,1086.4163l6.7845,6.7845,24.3336-24.3335,6.7923,6.7923-55.4595,55.4594-6.7923-6.7923,24.3336-24.3336-6.7845-6.7845a102.1813,102.1813,0,0,1-140.8543-3.31l6.7923-6.7924a92.5713,92.5713,0,0,0,127.2677,3.3081l-9.3638-9.3638a79.34,79.34,0,0,1-108.5645-3.2837l6.7923-6.7923a69.72,69.72,0,0,0,94.9622,3.2659l-9.3639-9.3638a56.5,56.5,0,0,1-76.2588-3.2415l6.7923-6.7923a46.8941,46.8941,0,0,0,62.6556,3.2229l-9.4374-9.4375a33.6434,33.6434,0,0,1-43.8788-3.1249l6.7923-6.7923a24.0539,24.0539,0,0,0,30.2231,3.0539l-20.9268-20.9268,6.7923-6.7923,20.9269,20.9268a24.0532,24.0532,0,0,0-3.0539-30.2231l6.7923-6.7923a33.6439,33.6439,0,0,1,3.1248,43.8786l9.4376,9.4376a46.8937,46.8937,0,0,0-3.223-62.6557l6.7923-6.7923a56.5008,56.5008,0,0,1,3.2415,76.2588l9.3639,9.3639a69.719,69.719,0,0,0-3.2659-94.9621l6.7923-6.7923a79.3405,79.3405,0,0,1,3.2836,108.5645l9.3639,9.3638a92.5709,92.5709,0,0,0-3.3081-127.2677l6.7923-6.7924A102.1809,102.1809,0,0,1,1090.2855,1086.4163Zm-82.0723-75.28a4.3458,4.3458,0,0,0,0-6.1461c-1.6972-1.6972-10.6743-4.5282-10.6743-4.5282s2.831,8.9771,4.5282,10.6743A4.3459,4.3459,0,0,0,1008.2132,1011.1364Zm-15.023,25.7308a4.3461,4.3461,0,0,0,0-6.1462c-1.6972-1.6972-10.6744-4.5282-10.6744-4.5282s2.831,8.9772,4.5282,10.6744A4.3461,4.3461,0,0,0,993.19,1036.8672Zm-16.1188,16.1187a4.3459,4.3459,0,0,0,0-6.1461c-1.6972-1.6972-10.6743-4.5282-10.6743-4.5282s2.831,8.9771,4.5282,10.6743A4.3459,4.3459,0,0,0,977.0714,1052.9859Zm-16.1188,16.1188a4.3459,4.3459,0,0,0,0-6.1461c-1.6972-1.6972-10.6743-4.5282-10.6743-4.5282s2.831,8.9771,4.5282,10.6743A4.3459,4.3459,0,0,0,960.9526,1069.1047Zm-16.1187,16.1188a4.3461,4.3461,0,0,0,0-6.1462c-1.6972-1.6972-10.6744-4.5282-10.6744-4.5282s2.831,8.9772,4.5282,10.6744A4.3461,4.3461,0,0,0,944.8339,1085.2235Zm137.5-137.5a4.3461,4.3461,0,0,0,0-6.1462c-1.6972-1.6972-10.6744-4.5282-10.6744-4.5282s2.831,8.9772,4.5282,10.6744A4.3461,4.3461,0,0,0,1082.3335,947.7239Zm-16.1188,16.1187a4.3459,4.3459,0,0,0,0-6.1461c-1.6972-1.6972-10.6743-4.5282-10.6743-4.5282s2.831,8.9771,4.5282,10.6743A4.3459,4.3459,0,0,0,1066.2147,963.8426Zm-16.1188,16.1188a4.3459,4.3459,0,0,0,0-6.1461c-1.6972-1.6972-10.6743-4.5282-10.6743-4.5282s2.831,8.9771,4.5282,10.6743A4.3459,4.3459,0,0,0,1050.0959,979.9614ZM1033.9772,996.08a4.3461,4.3461,0,0,0,0-6.1462c-1.6972-1.6972-10.6744-4.5282-10.6744-4.5282s2.831,8.9772,4.5282,10.6744A4.3461,4.3461,0,0,0,1033.9772,996.08Z" transform="translate(-5.7084 -7.4372)"/></g><path id="f7705d70-ab91-45f6-b894-b0e846b3993f" data-name="Reindeer" class="b9937d4c-04e2-4e86-8717-e9000efc08d8" d="M1092.6267,757.0693a60.11,60.11,0,0,0-18.3632-8.5026c-2.6991-.7426-3.1261-2.0159-2.63-4.4712,1.3261-6.5564,2.1711-13.223,3.7572-19.7113a76.689,76.689,0,0,0-2.7464-46.1942c-3.057-8.1659-7.2356-15.7887-10.9713-23.6268a36.526,36.526,0,0,1-2.803-8.3867c-1.3507-6.5518,1.1659-11.7566,5.5718-16.3652,3.3667-3.5217,6.0782-7.4144,6.1222-12.5652.0316-3.6853-2.0843-5.5406-5.72-4.8127a37.1432,37.1432,0,0,0-6.0057,1.8834c-3.1884,1.23-6.5646,2.1513-9.819,1.3163-6.2473-1.603-12.7561-.154-18.9457-2.0222a7.2194,7.2194,0,0,0-3.4117.0914c-7.603,1.6136-15.22,1.2695-22.8507.3111a8.1623,8.1623,0,0,1-6.8067-4.59,31.0893,31.0893,0,0,0-3.6824-6.4626c-1.0049-1.19-2.3446-2.4885-3.8673-1.9356-1.5412.56-.7526,2.378-.6619,3.6115a20.5107,20.5107,0,0,0,.9493,4.1611c.5432,1.8585,1.1829,3.6888,1.82,5.65-9.5855-2.371-17.1859-6.8038-21.2968-16.0524a27.2684,27.2684,0,0,0-7.4687-10.4052c-.7572-.6143-1.5221-1.9069-2.5854-1.2428-1.0757.6718-.8654,2.0475-.4328,3.1655.7562,1.9547,1.5884,3.88,2.374,5.8235.1751.4333.4507.96.0352,1.3335-.5915.5314-1.0384-.038-1.4418-.3923-1.5817-1.3892-3.0966-2.8587-4.7261-4.1882-1.57-1.28-3.611-3.5629-5.283-1.9956-1.4553,1.3642.5549,3.6929,1.7706,5.19,3.33,4.1,7.3569,7.528,11.2344,11.087a45.3531,45.3531,0,0,0,19.9316,10.8521c2.8573.7129,5.6789,1.5686,8.5168,2.3591a76.868,76.868,0,0,1-8.8344,2.7094,8.5944,8.5944,0,0,1-8.7051-2.2489,40.2543,40.2543,0,0,0-4.0819-3.1374,2.3393,2.3393,0,0,0-2.7-.2488c-.918.6818-.3407,1.7578-.0917,2.655.598,2.1553,2.39,3.5354,4.0287,5.6259-6.4669.2456-12.4235,1.2442-18.3931-.009-5.1276-1.0764-7.995-4.9249-10.6651-8.9646-2.0077-3.0376-3.9817-6.1117-6.923-8.3594-.7047-.5386-1.5351-1.6055-2.4679-.9533-.9295.65-.1966,1.7358.0372,2.6324a33.1689,33.1689,0,0,0,6.6361,13.5089c.6872.806,1.7729,1.975,1.084,2.9958-.5446.807-1.9413.2955-2.969.1362-3.2684-.5065-6.1518-2.006-9.0475-3.48a44.6607,44.6607,0,0,1-12.0338-9.1762c-.5522-.5785-1.05-1.435-2.122-.5478-.7221.5975-.9015.9584-.3575,1.8353,8.5934,13.8516,20.1815,21.4349,37.8841,19.2947,6.6411-.8029,13.2029-2.2783,19.8483-3.0249,8.8348-.9925,17.7673-1.07,26.5166-2.9,6.3519-1.329,12.6421-3.0863,19.2356-2.8164,4.0082.164,4.4638.7716,2.8626,4.4323-2.2954,5.2477-4.6517,10.469-7.0116,15.6881-1.518,3.3572-.3155,5.1188,3.3526,4.9746,2.8282-.111,4.316-2.0671,5.8435-4.2764a13.2415,13.2415,0,0,1,2.405,5.6255c1.6186,6.64,1.3839,13.5012,2.3967,20.2132q.0665.44.1345.8806a26.9971,26.9971,0,0,0-38.07,37.0161c-10.6757.3755-21.3252,1.3113-31.9969,1.7478-7.52.3076-13.9214,3.0355-18.6875,9.1335a31.7517,31.7517,0,0,1-4.2139,4.2957,9.3132,9.3132,0,0,1-10.413,1.6482c-.8869-.37-1.9428-1.5-2.8456-.5229-.8123.8793-.2794,2.1767-.0026,3.289.9521,3.8243,3.7985,6.0663,6.7987,8.1925,2.5123,1.7806,4.9569,3.5782,5.6181,6.9217a36.4138,36.4138,0,0,0,5.4441,12.5412,58.7174,58.7174,0,0,1,3.6015,6.5065c3.3294,7.0277,2.2987,12.0647-3.5766,17.1619-3.0343,2.6325-6.2326,5.0777-9.3875,7.5686a12.5833,12.5833,0,0,0-5.2624,9.79,104.5243,104.5243,0,0,1-1.8719,16.2349c-1.3552,7.4464-1.563,15.356-7.4869,21.2085-.7192.71-.6395,1.27.1759,1.8612,2.8806,2.09,3.84,5.1359,4.0759,8.4918.1674,2.384.3286,4.7752.3179,7.1625-.0069,1.5333.4109,2.24,2.0735,2.2554,3.0611.0279,6.1229.3877,9.1795.3335,2.018-.0358,5.0735,1.128,5.812-.7533.73-1.8594-1.82-3.7579-3.3838-5.2373-4.6834-4.43-6.2239-9.8236-5.7648-16.1282.462-6.3422,2.62-12.347,3.4444-18.5653,1.6873-12.7331,9.9206-20.3788,20.2558-27.3152-2.5851,6.2808.0811,11.51,1.9734,16.9018,1.6118,4.5924,3.0426,9.2526,4.4163,13.9232,1.93,6.561,2.4123,13.3427,2.8783,20.1257.159,2.3143.464,5.0075,3.2159,5.4624,2.6767.4425,3.3943,1.7852,3.7363,4.1468.4117,2.8433,1.4113,5.3823,4.958,5.7241,2.8528.2749,5.674.893,8.5283,1.1308,1.6586.1382,4.0206.94,4.8619-.5329.9506-1.6647-1.2444-3.07-2.1207-4.5607a11.8154,11.8154,0,0,0-1.0393-1.37c-8.1961-10.17-13.812-21.565-15.5605-34.57-1.6162-12.0215.6038-22.75,11.8511-29.7756a30.0683,30.0683,0,0,0,13.0463-17.5434c.4695-1.5677,1.1737-1.9751,2.65-1.7006,5.54,1.03,11.08,2.0644,16.6342,3.0094,6.4692,1.1007,12.9457,1.86,19.0106-1.6376,1.1816-.6815,1.2477.0746,1.5011.8191.86,2.5285,1.7224,5.0566,2.603,7.5781,3.8621,11.058,7.0006,22.2441,6.7113,34.1325-.2328,9.5709-.3531,19.1375-2.4065,28.5564-.5788,2.6548-1.2012,6.1032,1.6007,7.2618,3.6678,1.5167,2.74,3.8467,2.5158,6.3765-.0931,1.0483-.079,2.1057-.1437,3.1571-.062,1.0088.2116,1.6663,1.3873,1.6721,4.87.024,9.7461.9317,14.6071-.1018,1.445-.3072,3.5813-.0392,3.965-1.5763.3657-1.4646-1.69-2.1145-2.8257-2.84-5.6789-3.6274-7.8341-8.8058-7.4645-15.4014.3911-6.9772.3846-13.9765.7662-20.9544.2821-5.1571.9388-10.2928,1.3742-15.4426.8311-9.8312,3.3086-19.4073,4.4751-29.1874.683-5.7271.7423-5.72,6.51-5.4773.0956.0041.1924-.0062.2873.0038,5.6127.5976,11.2289,1.2325,16.36,3.8292,3.6153,1.83,4.3172,4.1159,2.6064,7.7656a18.9716,18.9716,0,0,1-3.26,4.6955A139.87,139.87,0,0,0,1071.2346,795.2c-4.0772,5.7789-7.88,11.7685-12.7943,16.9246a5.4039,5.4039,0,0,0-1.5983,4.732,19.507,19.507,0,0,0,6.956,11.5412c1.4583,1.2479,2.24.6565,2.3445-1.0757.28-4.6239,2.2542-8.6211,4.4724-12.5587,3.0574-5.4272,6.773-10.4077,10.2819-15.5337,5.7729-8.4334,12-16.6136,16.3765-25.9007C1100.64,766.185,1099.13,761.5673,1092.6267,757.0693Zm-80.1936-75.5065a13.5,13.5,0,0,1,7.5738,24.675,23.4158,23.4158,0,0,1-4.2437,1.8188c-.31.1-.6229.189-.935.2816a13.4952,13.4952,0,1,1-2.3951-26.7754Z" transform="translate(-5.7084 -7.4372)"/><path id="be9e02fb-e559-4943-b514-d7beeb265803" data-name="Sleigh" class="b9937d4c-04e2-4e86-8717-e9000efc08d8" d="M819.7053,751.4527a26.5422,26.5422,0,0,0-33.1668-3.9329,108.568,108.568,0,0,0-11.0259,7.9294c-6.0726,4.83-12.8582,5.8693-20.1,3.86a63.5457,63.5457,0,0,1-12.1863-4.5469c-25.5214-13.196-33.1744-29.68-26.7232-54.3377a106.9491,106.9491,0,0,0,3.019-16.2521c1.9661-19.4882-4.0978-35.8848-19.8377-48.04q-1.86-1.4366-3.769-2.6706a26.5722,26.5722,0,1,0-35.9909-1.6322c-7.04,4.76-11.1028,13.2132-9.6668,20.7525a16.4086,16.4086,0,0,0,13.8214,12.8462c5.306.5665,10.93-2.3474,12.1636-7.3065.6074-2.4415-.062-6.12-1.6519-7.901-1.2972-1.4535-4.82-.92-5.9805-1.0794-.5992,3.7061-.9291,5.7464-1.259,7.7867-2.409-1.1248-6.2231-1.7246-6.8871-3.5014-.9215-2.4654-.3123-6.3338,1.14-8.6695,2.4576-3.9514,6.8074-5.2363,11.4916-4.1655a16.5739,16.5739,0,0,1,13.123,13.0513c3.4981,14.8245-.5919,28.366-7.5731,41.8715-5.4974-5.9023-11.5549-9.2961-19.1353-9.0792a14.595,14.595,0,0,0-13.4982,9.0744,11.4033,11.4033,0,0,0,2.0163,13.2276c4.3285,4.6945,10.1855,3.9832,12.7731-.69-2.3926-1.5626-5.0306-2.7491-6.7408-4.7348-.501-.5817,1.5905-4.9369,2.57-4.9656,2.9973-.0872,6.9415.17,8.8056,2.0189,2.0305,2.014,2.5622,5.9106,2.9411,9.0825.2375,1.9885-.9634,4.1691-1.6011,6.2381-2.9331,9.5169-4.7518,19.0929-3.0267,29.1536.2934,1.7109-1.0724,4.2254-2.4417,5.6036-3.8585,3.8837-4.0585,6.48-.9111,9.076,1.7772-1.5872,3.7652-4.4258,4.856-4.1152,2.2567.643,4.94,2.6108,5.7488,4.6935.76,1.9548-.0274,5.1666-1.26,7.1115-3.1955,5.0416-8.4861,5.7334-13.6731,4.2255-10.2452-2.9783-19.415-8.3432-26.1914-16.5153a20.44,20.44,0,0,1-4.2113-13.4667c.2778-3.4342,4.1973-6.9911,7.2777-9.5581,1.0994-.9162,4.7467.4859,6.7178,1.6782.9317.5635,1.3964,4.1388.7824,4.5888-1.6971,1.2437-4.0733,1.56-6.1654,2.2384,2.113,4.8226,7.9081,5.7587,11.7485,1.4438a10.7124,10.7124,0,0,0,.2118-13.655c-5.8016-7.6769-17.2069-8.43-25.3677-1.6743-13.4615,11.1429-11.1166,34.5144,5.2913,44.1354,47.2405,27.7,94.4871,55.4195,142.3761,81.9682,16.6662,9.2393,33.4158,1.2816,39.4443-13.8581a18.814,18.814,0,0,0-5.3233-21.5067c-5.1439-4.3729-13.4843-4.8308-17.1258.0642-1.8444,2.4793-2.0362,6.8729-1.492,10.155.191,1.1521,2.0273,2.0314,3.83,2.9163.2462-1.9312.1921-4.0384,1.0978-5.5827.7081-1.2074,3.1563-2.3788,4.4208-2.041,1.8255.4878,4.5848,2.3058,4.6379,3.6475.1305,3.2982-.1388,7.2726-1.8943,9.8557-4.4425,6.5365-13.0723,6.875-20.57,1.5338-10.2071-7.2715-13.1993-18.1053-15.1638-30.3842,17.1559-2.4187,24.2992-13.6131,28.3334-28.1666a73.0594,73.0594,0,0,1,6.701-16.2752c2.8252-5.0025,9.7448-6.9066,14.5433-4.823,4.0551,1.7607,6.5343,5.18,5.17,9.4216-.7136,2.2195-3.6456,4.53-6.0107,5.1557-1.8379.4865-4.3493-1.5712-6.5235-2.4822.4235,5.7275,2.495,8.5177,7.2688,9.7,5.0061,1.24,10.1914-1.1582,13.0055-6.0141C826.8554,767.0885,825.4724,757.32,819.7053,751.4527ZM678.806,599.8494a13.2866,13.2866,0,1,1-13.2866,13.2866A13.2866,13.2866,0,0,1,678.806,599.8494Z" transform="translate(-5.7084 -7.4372)"/><path id="bef26c27-e32f-4f8c-843b-516e352dcbfb" data-name="Angel" class="b9937d4c-04e2-4e86-8717-e9000efc08d8" d="M488.1208,676.2734a53,53,0,0,1-1.9723,5.3517,18.5172,18.5172,0,0,1-1.7726,2.5954c5.55,2.0938,11.3529,3.7674,16.5873,6.5218,1.9867,1.0454,3.4628,4.5429,3.5733,6.9947.0491,1.0892-3.7346,2.8165-6.003,3.447a47.5049,47.5049,0,0,1-13.9608,1.86c-3.4779,5.0759-3.7713,5.0633-10.0389-.1868-2.13-1.7842-4.6971-3.9789-7.2241-4.2055-16.006-1.4347-21.9567.8371-7.806,6.2614,23.5056,9.01,46.4239,19.1572,67.6376,32.9589,12.5036,8.1349,26.0376,9.923,40.0649,3.397.7961,14.0946-6.9181,27.2271-19.9,32.2744-6.7064,2.6072-9.9589,6.6488-12.0114,13.4672-6.2807,20.8628-19.9076,34.4348-41.41,40.1079a16.334,16.334,0,0,0-9.5217,8.2214C478,850.0543,466.9438,857.3049,451.14,858.68c-.0842-.5742-.43-1.2863-.2207-1.7448,5.8358-12.779,4.66-25.5489-2.7011-36.818-15.5657-23.8305-25.4761-50.2551-37.2152-75.8893-5.2476-11.4589-6.6907,3.1253-3.8729,10.6073,1.387,3.6825,2.8012,7.5724,5.1642,10.6243,4.9136,6.3463,5.0767,6.55-1.5778,9.1563-.1317,5.4969-.0026,10.6532-.5115,15.7458-.1829,1.83-1.9134,4.9667-2.9178,4.9588-2.3094-.0179-5.7759-.9684-6.6924-2.6645-2.9118-5.3885-4.8711-11.2915-7.28-17.1943l-8.1079,4.0975c1.1632-5.3821,2.5589-8.9348,2.5555-12.486-.0054-5.7194-8.6608-1.177-9.6327,2.76-.3469,1.4051-.9929,3.0006-.6417,4.2714,2.6375,9.5441.6769,17.713-6.19,24.9889-1.3084,1.3863-1.6744,4.6351-1.1164,6.6479,3.0262,10.9151,1.5921,20.8927-4.5867,30.4775-10.5715-17.82-20.13-35.5145-31.2647-52.154-7.6188-11.3854-17.8414-20.9911-26.1728-31.9455-12.6-16.5667-18.1785-34.9963-10.9106-55.4808a41.5177,41.5177,0,0,1,8.4523-13.8111c9.0036-9.7829,18.984-9.601,29.729-1.8171a44.42,44.42,0,0,0,17.7648,7.5841c7.3667,1.2971,9.5824-2.4829,6.5994-9.3739a24.7874,24.7874,0,0,0-4.7271-6.9964c-5.2724-5.5727-10.8-10.9039-17.2459-17.35a65.4756,65.4756,0,0,1-6.681,1.8755c-9.29,1.8616-15.0425-3.155-13.7642-12.5527a33.32,33.32,0,0,1,4.2827-11.9169,53.2881,53.2881,0,0,1,23.679-21.9377c6.0225-2.8247,12.7573-4.442,18.1237.51,5.1177,4.7221,2.8468,10.9935.8615,16.7071-.3.8635-.6522,1.7089-.38,1,6.49,6.49,11.8133,12.7636,18.14,17.77,3.5741,2.8283,8.798,3.5719,13.2787,5.2545.65-4.4632,2.2367-9.0508,1.6655-13.3518-.4917-3.7035-2.9645-7.4576-5.39-10.5371-11.1162-14.1162-8.2979-28.3247,7.8118-36.8989,15.6518-8.3305,32.1452-8.529,47.214-.2114,12.508,6.904,22.9823,17.3872,34.96,25.3818,18.1037,12.083,36.726,23.39,55.1429,35.0023,2.5621,1.6155,5.2094,3.0962,8.7376,5.1838-9.7141,6.5781-19.4136,7.8485-29.57,4.8817-3.9053-1.1408-6.5779-1.15-9.2134,2.2174-1.25,1.5975-3.557,2.3188-5.1677,3.6919-7.2582,6.1873-16.176-1.49-23.9541,3.2533-8.3532,5.0937-15.6685,8.33-9.5054,9.285C473.99,680.3952,480.452,677.6656,488.1208,676.2734Zm-153.368-50.6717c-5.4151,5.4152-7.12,10.1661-9.627,15.6587-1.0314,2.2594-1.8328,5.7357,1.1448,8.7133s10.3635-2.005,11.2039-4.481c3.0437-8.9669,8.325-14.0456,17.145-17.2,2.521-.9014,7.4158-7.8579,4.776-10.4976a8.5572,8.5572,0,0,0-8.9313-1.8456C344.947,618.3567,340.168,620.1865,334.7528,625.6017Z" transform="translate(-5.7084 -7.4372)"/><path id="bdb70747-160b-49e1-9927-8ff4b16daeba" data-name="Ball with Droop" class="b9937d4c-04e2-4e86-8717-e9000efc08d8" d="M257.7683,784.7265c-2.3311-15.2138-7.149-29.7238-20.4345-38.6852-8.1093-5.47-17.9325-8.3991-27.3017-12.6113,13.7009-40.6948,6.3144-77.0508-26.9616-105.9952C149.18,597.9556,111.534,596.0711,71.733,616.3272l-20.0379-23.271-8.57,6.2063c-3.858-10.37-10.5708-15.6754-21.1112-14.5308-7.8575.8533-13.5047,5.1031-15.4943,12.9228-3.0784,12.0991,2.8531,19.8552,13.6,24.6816L14.3491,630.55l23.3122,20.1022C18.23,687.2161,18.578,723.0632,43.5791,755.8668c28.8273,37.8241,67.3063,48.03,112.807,32.47,4.2143,31.0062,23.6828,44.9993,52.1359,48.8223,22.8917,3.0759,46.3149,3.8177,67.14,17.4193C261.4822,832.9169,261.394,808.3913,257.7683,784.7265ZM31.1378,610.07a9,9,0,1,1,0-12.728A9,9,0,0,1,31.1378,610.07Z" transform="translate(-5.7084 -7.4372)"/><path id="a8e671f4-81f7-4ed8-94d3-735b8c5c46b0" data-name="Snowman" class="b9937d4c-04e2-4e86-8717-e9000efc08d8" d="M1126.6643,455.2581a66.908,66.908,0,0,0-56.9043-18.9493,50.5232,50.5232,0,0,0-14.441-29.4116,51.1578,51.1578,0,0,0-5.0505-4.4273l4.8172-38.3408,14.6418-14.6419-5.85-5.85-7.1108,7.111,1.0883-8.6625-8.2082-1.0311-1.1557,9.2-6.7377-6.7378-5.85,5.85,11.2817,11.2817-4.6424,36.9547a50.8976,50.8976,0,0,0-34.201-4.3393,38.0188,38.0188,0,0,0-34.0014-37.42l5.3977-5.3977a6.8068,6.8068,0,0,0-9.6262-9.6262l-9.0142,9.0142-17.7473-17.7474a12.3732,12.3732,0,0,0-9.4339-3.5883,28.813,28.813,0,1,0-28.7809,28.781,12.3725,12.3725,0,0,0,3.5883,9.4339l17.7474,17.7473-9.0143,9.0142a6.8068,6.8068,0,1,0,9.6262,9.6262l5.3978-5.3978a38.0186,38.0186,0,0,0,37.4195,34.0015,50.8968,50.8968,0,0,0,4.3394,34.2009l-36.9547,4.6425-11.2817-11.2818-5.85,5.85,6.7377,6.7378-9.1994,1.1557,1.0311,8.2081,8.6624-1.0883-7.1109,7.111,5.85,5.85,14.6418-14.6419,38.3408-4.8171a51.1714,51.1714,0,0,0,4.4273,5.05,50.5237,50.5237,0,0,0,29.4116,14.4411,67.0124,67.0124,0,1,0,113.7181-37.8645ZM894.9177,338.6541a14.4065,14.4065,0,1,1,20.3738,0A14.4065,14.4065,0,0,1,894.9177,338.6541Z" transform="translate(-5.7084 -7.4372)"/><path id="bde2abf9-9148-48ab-8401-5ae64edda21e" data-name="Six-pointed Star" class="b9937d4c-04e2-4e86-8717-e9000efc08d8" d="M764.4108,433.5628l70.2539-62.0589a4.3546,4.3546,0,0,0-4.2689-7.3923l-88.8706,29.8115-9.81-48.409a27,27,0,1,0-26.1508,0l-9.81,48.409-88.8717-29.8115a4.3547,4.3547,0,0,0-4.2679,7.3923l70.2534,62.0589-70.2534,62.0583a4.3546,4.3546,0,0,0,4.2679,7.3932l88.8717-29.812,18.6176,91.87a4.3545,4.3545,0,0,0,8.5358,0l18.6177-91.87,88.8706,29.812a4.3553,4.3553,0,0,0,4.2689-7.3932ZM718.64,308.391a13.5,13.5,0,1,1-13.5,13.5A13.5,13.5,0,0,1,718.64,308.391Z" transform="translate(-5.7084 -7.4372)"/><path class="b9937d4c-04e2-4e86-8717-e9000efc08d8" d="M488.22,300.2243,412.6744,356.6,353.818,336.6413a26.9938,26.9938,0,1,0-19.9263,20.6116l19.7856,58.3446-56.3761,75.5456,94.2551-1.2043,54.4275,76.9624,27.98-90.0141,90.0141-27.98-76.9624-54.4275ZM317.8636,321.4938a13.5,13.5,0,1,1,0,19.0919A13.5,13.5,0,0,1,317.8636,321.4938Z" transform="translate(-5.7084 -7.4372)"/><path id="f11dc4ef-0bb6-4797-b370-eee4623ae101" data-name="Round Ball" class="b9937d4c-04e2-4e86-8717-e9000efc08d8" d="M88.9517,335.6382l-8.497-8.4971A10.4483,10.4483,0,0,0,69.759,324.65a31.28,31.28,0,1,0-36.0327,36.0326,10.4481,10.4481,0,0,0,2.4917,10.6957l8.497,8.4971a125.12,125.12,0,1,0,44.2367-44.2367ZM27.8605,318.7837a15.64,15.64,0,1,1,0,22.1183A15.64,15.64,0,0,1,27.8605,318.7837Z" transform="translate(-5.7084 -7.4372)"/><path id="a0a68b21-d7cd-4e8f-9330-421e49a219ad" data-name="Bell" class="b9937d4c-04e2-4e86-8717-e9000efc08d8" d="M1138.0652,94.4212c-12.4612-.5948-24.9765-1.1649-37.32-2.8446a84.2617,84.2617,0,0,1-44.47-20.3517c-9.8612-8.5238-20.06-16.713-30.5787-24.4083-22.0694-16.1455-45.9741-25.8246-73.91-18.0428-7.113,1.9814-13.987,4.8206-20.9786,7.2685-1.0653-23.35-17.42-34.9061-37.0153-25.1078-7.271,3.6355-13.756,9.9891-18.9,16.455-7.1661,9.0072-8.5156,19.87-3.0527,30.475,5.1334,9.9655,14.29,12.6238,25.8867,11.4744-1.64,3.8194-2.9677,6.7886-4.2,9.797-9.2891,22.688-9.4867,45.4353,2.9529,66.6915,8.6792,14.8305,18.5611,29.3718,30.127,42.0093,22.4211,24.4986,29.1012,53.7435,29.3869,85.3163.0981,10.8444,1.5845,12.6685,11.529,8.4149a27.451,27.451,0,0,0,5.3179-2.7866c13.1948-9.532,26.5906-18.8136,39.4018-28.84,10.2351-8.01,19.7369-16.9575,29.4072-25.3525,18.4881,10.5277,31.9035,10.2523,43.1382-.576,10.6561-10.27,10.994-23.939,1.206-43.0288,13.7839-16.739,27.8939-33.0764,41.0288-50.1634,6.5062-8.4641,11.76-18.0376,16.5418-27.6268C1146.5235,97.2613,1143.9157,94.7,1138.0652,94.4212ZM899.9231,51.285a13.5,13.5,0,1,1,13.5-13.5A13.5,13.5,0,0,1,899.9231,51.285Z" transform="translate(-5.7084 -7.4372)"/><path id="fe121436-330d-4569-9d45-65c8b95e8778" data-name="Stocking" class="b9937d4c-04e2-4e86-8717-e9000efc08d8" d="M835.53,238.6937c-.6181-10.1759-6.1132-18.1076-12.6668-25.331-13.1168-14.4575-29.3683-23.785-48.0208-29.3408-20.0255-5.9647-24.0419-10.6716-23.34-31.3515.6088-17.9286,2.7288-35.8316,4.9037-53.6577.3965-3.2507,4.2865-6.0646,6.5327-9.1031,2.4718-3.3438,6.24-6.42,7.0611-10.139a59.1408,59.1408,0,0,0,1.03-19.544c-1.4454-11.8968-9.0108-16.7255-21.6288-15.9375-19.4566,1.2151-38.9306,2.344-58.4142,2.8461a182.5561,182.5561,0,0,1-27.2885-1.79c-3.1385-.3938-5.9333-.6324-8.4374-.7009A27,27,0,1,0,636.18,65.8557c-.0225,1.0724-.031,2.1819-.0192,3.3507.1434,9.6338.5791,17.9546,9.9068,25.3337,5.2083,4.12,6.012,15.2672,6.6407,23.4145a492.9794,492.9794,0,0,1,1.3731,51.622c-.1711,6.1242-4.0643,12.1988-6.5118,18.1926-3.8819,9.5065-9.4834,18.59-11.682,28.4493-5.3139,23.8294,8.6082,38.5624,33.219,37.385,11.3485-.5429,22.997-1.3736,34.0625.5278a113.0314,113.0314,0,0,1,33.469,11.1262c22.5425,11.9805,45.6916,16.5795,70.4019,9.8148C825.7837,269.941,836.5583,255.6207,835.53,238.6937ZM615.1818,39.9188a13.5,13.5,0,1,1,13.5,13.5A13.5,13.5,0,0,1,615.1818,39.9188Z" transform="translate(-5.7084 -7.4372)"/><path id="f47aa1f8-78ef-40df-9a09-761e324374c8" data-name="Tree" class="b9937d4c-04e2-4e86-8717-e9000efc08d8" d="M495.5831,114.9738c6.0868-14.34,8.2915-29.164,5.3456-45.3383-24.99,16.7305-51.4592,22.3945-80.7635,16.72a82.6093,82.6093,0,0,0,5.7295-41.4638c-26.2424,11.5167-52.3725,13.6751-79.0253,7.1232a27.5263,27.5263,0,1,0-9.3272,9.5011c6.614,26.8386,4.1854,52.8072-6.9707,78.739,14.5577,2.0164,27.921-.437,41.3282-5.4661,5.7513,29.3928-.1928,55.8237-15.9815,81.6859a97.5107,97.5107,0,0,0,22.7387-.5083c7.5914-1.1856,15.0026-3.5246,22.6262-5.3917,4.7968,23.5862,2.6441,46.8261-5.6292,69.9878C478.5947,256.96,546.3285,183.93,565.6459,110.596,532.6844,118.8889,510.3694,120.3329,495.5831,114.9738ZM313.4181,47.8012a13.7558,13.7558,0,1,1,19.4536,0A13.7558,13.7558,0,0,1,313.4181,47.8012Z" transform="translate(-5.7084 -7.4372)"/><path id="b2500c22-6263-480b-b6e7-c725a962be0c" data-name="Droopy Ball" class="b9937d4c-04e2-4e86-8717-e9000efc08d8" d="M79.094,43.12A35.3187,35.3187,0,0,0,68.7449,20.98a35.9574,35.9574,0,0,0-50.6213,0,35.547,35.547,0,0,0,21.6843,60.53c-21.81,34.8878-44.3741,99.49,13.63,157.1243,75.0417,74.5631,119.2532,26.9556,156.6077,26.9556s56.9371,16.3051,63.8021,9.4839-10.4254-25.2151-10.4254-62.52,45.48-85.2136-26.248-156.4837C181.5546.804,114.8911,22.1458,79.094,43.12ZM30.7789,33.5545a17.9788,17.9788,0,0,1,25.3107,0,17.7031,17.7031,0,0,1,0,25.1492,17.9789,17.9789,0,0,1-25.3107,0A17.7031,17.7031,0,0,1,30.7789,33.5545Z" transform="translate(-5.7084 -7.4372)"/></g><g id="b3efd6d4-39dd-4d8d-9d52-285496d164b3" data-name="Layer 2"><path d="M1385.4451,844.3287c1.7633,8.0125,3.4493,16.043,5.3177,24.0308a16.1272,16.1272,0,0,0,9.0593,11.1946c1.0136.4968,2.0438.9731,3.0068,1.5571,2.2943,1.3916,5.3461,2.5465,5.482,5.5053.163,3.55-4.0211,2.6607-6.4873,4.4368,4.7439,3.3071,6.078,8.0757,7.5131,12.8192,1.0917,3.6081.5946,6.9662-2.4516,9.1421-3.0638,2.1883-5.5637-.3885-7.7685-2.1846-2.4388-1.9868-4.5681-4.3515-6.8513-6.5318-.7864-.7509-1.9056-2.2209-2.4067-2.0437-8.0475,2.844-7.1639-3.0791-7.7663-7.6663a15.61,15.61,0,0,0-1.1477-4.5874c-3.1659-6.7165-8.7134-12.0869-10.8261-19.4373-1.9656-6.839-4.2024-13.6-6.8637-22.1411.6821,18.7138,6.4165,34.118,13.2332,49.1373,7.5833,16.7087,13.7546,33.8455,17.4686,51.8348,2.9641,14.3568,9.0105,26.484,23.4227,32.6467,3.19,1.3642,2.7839,3.0529.2121,4.8123-10.5493,7.2164-21.6314,11.5565-34.2394,5.5794-5.388-2.5543-9.9456-2.1439-15.2747.7861-18.62,10.2375-37.4544,10.7681-55.8165-.8272-4.7057-2.9717-9.031-2.091-13.4991-.1785-11.98,5.1279-22.8435,2.7142-33.2422-4.3874-3.8035-2.5974-5.1625-4.2645.24-6.5075,9.8335-4.0825,15.7947-11.911,18.9957-21.7319,2.4406-7.4878,4.3406-15.1761,6.0614-22.8692,4.1282-18.4547,13.1-35.0529,19.91-52.4705a103.3654,103.3654,0,0,0,7.148-34.0154c-1.9241,6.2209-3.87,12.4352-5.7653,18.6648a38.0255,38.0255,0,0,1-6.1331,12.7523c-3.921,4.9479-6.4942,10.2422-6.7232,16.6-.0676,1.8774-.9195,4.733-2.384,4.3119-7.0175-2.0174-8.8432,4.4827-12.9255,7.1927-2.8655,1.9023-5.451,5.8963-9.3453,3.0038-3.4994-2.5993-3.0361-6.6382-1.8136-10.567,1.2974-4.17,3.0234-8.0008,6.7174-10.755-1.5979-2.54-6.18-1.0452-6.14-4.5056.0388-3.3525,3.1916-4.8162,5.82-5.9373,7.86-3.3525,11.6872-9.26,12.9061-17.6.937-6.4112,2.841-12.6809,3.3972-19.3392-2.3773,6.0132-4.49,12.1488-7.2014,18.0076-3.118,6.7381-6.1294,13.8766-15.2136,14.5431-2.1328.1565-2.7581,2.1182-3.7351,3.59-4.5194,6.808-10.5434,11.1753-18.9916,11.0888-3.5537-.0363-5.1677,1.88-6.7224,4.6082a33.0039,33.0039,0,0,1-19.4906,15.8111c-1.4369.4419-3.07,1.43-4.4335-.0179-1.3876-1.4737-.0931-2.968.3325-4.4036,5.2553-17.7248,11.4066-35.2567,13.9176-53.6428,1.7362-12.7124,1.87-25.6449,3.6375-38.3514,2.3354-16.7928,10.04-30.7621,24.3807-40.5218a40.7461,40.7461,0,0,1,18.2439-6.7275c13.5873-1.6768,23.5369,6.25,24.2776,19.8747a25.3955,25.3955,0,0,0,6.384,15.9986c4.1965,4.7508,7.7939,4.1329,10.1554-1.582,1.3022-3.1514,2.2277-6.4189,1.0859-9.885a4.72,4.72,0,0,1-.3662-1.9875c1.4025-10.2626,2.2567-19.6452-8.9332-26.44-4.7868-2.9066-1.5309-9.2371,2.4586-12.823,8.7484-7.863,19.5664-8.7459,30.5382-7.8973,6.2577.4841,12.578,1.6184,17.9128,5.5135,9.5162,6.9481,9.3644,15.5608-.9713,21.2329-4.2581,2.3367-5.5461,4.459-3.7642,8.8645,1.84,4.55,1.2332,9.28.5545,14.0263-.7638,5.3412-.3553,11.7463,4.8224,13.5354,5.6672,1.9581,8.07-4.3158,10.4486-8.5957,1.7876-3.2166,2.0588-6.8259,2.3638-10.4665,1.1138-13.2973,10.8221-21.0031,24.1364-19.3776,21.5806,2.6348,39.2868,22.2306,42.92,47.0715,2.4137,16.5054,1.2752,33.41,5.5085,49.68,3.5777,13.75,7.51,27.4079,11.2827,41.1072.5272,1.9144,1.9866,4.1747.3761,5.7362-1.92,1.8612-4.2712.0069-6.2551-.7351a31.4236,31.4236,0,0,1-15.8617-13.218c-2.6115-4.2388-5.1967-7.1815-10.5474-6.4971-1.0521.1345-2.1821-.5043-3.2941-.6482-8.93-1.1558-10.8153-11.7167-18.7606-14.0846-9.06-2.7-11.6249-10.62-14.7941-18.0452-2.0153-4.722-3.79-9.5466-5.6727-14.3252ZM1361.9487,758.94c-.37-2.6209-2.45-3.9581-4.8515-4.7562-10.7677-3.5782-21.5925-3.863-32.3222.0679-2.6717.9788-6.2874,2.4738-4.7045,6.079,1.6238,3.698,5.4928,5.95,9.4657,3.92,7.6611-3.9147,14.8616-3.9644,22.4916-.0286C1355.8454,766.1911,1362.0159,762.7067,1361.9487,758.94Z" transform="translate(-5.7084 -7.4372)"/><path d="M1344.3881,176.9708c12.2354,1.7969,8.77,3.3276,8.3376,12.225-.2624,5.4-.65,10.8054-1.2949,16.1707-.6487,5.3926,3.7992,4.9136,6.6325,5.8309,32.9183,10.6576,55.5753,32.2283,67.1531,64.6671,21.8749,61.2893-18.9059,127.2062-83.5967,135.8851a102.5147,102.5147,0,0,1-116.43-101.7044c-.0254-45.5855,28.2777-84.5706,71.8366-98.3693,5.8576-1.8555,8.9911-3.7789,7.1955-10.6327-1.18-4.5031-.765-9.406-1.2773-14.1066-.5468-5.0164-1.279-9.5014,6.3755-9.3895,5.0448.0736,1.4561-3.6695,1.1436-5.3341-1.6669-8.8809,2.26-17.2243,10.1684-20.7454a17.8839,17.8839,0,0,1,22.1609,6.2125C1346.2523,162.6779,1346.6307,167.2525,1344.3881,176.9708Zm-7.8961-8.5755c-.143-5.508-2.71-8.77-8.1523-8.8154-5.1381-.0425-8.6885,2.3931-8.7736,7.9976-.0811,5.3521,2.7812,8.5387,8.1316,8.7044C1332.9709,176.4452,1336.0412,173.64,1336.492,168.3953Z" transform="translate(-5.7084 -7.4372)"/><path d="M1364.642,708.3142c-43.4708-.7482-84.9393-9.9283-123.8931-29.6035-1.7106-.8641-4.5153-1.0389-4.5032-3.4594.0116-2.3413,2.7389-2.702,4.4574-3.5612,18.9208-9.46,34.4253-22.9429,47.4822-39.4959,3.4915-4.4264,4.5478-6.8281-1.8819-9.5146-11.2049-4.6818-20.2622-12.51-28.0868-21.7843-4.8761-5.7793-4.72-6.6081,2.73-8.3559,25.5938-6.0037,46.2672-19.528,62.47-40.1909,3.3491-4.2712,3.3777-6.4819-1.9446-8.8737-10.0006-4.494-18.3492-11.3874-25.72-19.4873-3.0831-3.3881-3.693-5.4977,1.5722-7.6958,28.5956-11.9379,49.8341-32.0028,64.3238-59.332.8944-1.6869,1.16-4.4591,3.5306-4.4659,2.3792-.0068,2.6576,2.7512,3.5474,4.4514,14.1287,26.9957,35.0465,46.7933,63.0319,58.8275,5.7917,2.49,6.16,4.7364,2.0628,8.9855-7.1013,7.3642-14.722,14.16-24.1387,18.2434-6.4443,2.7945-5.9687,5.477-2.0986,10.2628,16.0211,19.8118,36.1277,33.0689,60.9415,39.0827,8.7139,2.1118,8.8577,2.6542,2.8948,9.3162-8.0613,9.0066-17.08,16.8073-28.3309,21.5255-4.6561,1.9525-5.0027,3.8281-1.93,7.7964,13.1938,17.0376,28.9993,30.86,48.2868,40.6138,1.7612.8906,4.5783,1.3334,4.7136,3.4049.1816,2.7818-3.0434,2.8816-4.9152,3.8192a271.0178,271.0178,0,0,1-102.983,28.3774C1379.0575,707.7165,1371.8831,708.4224,1364.642,708.3142Z" transform="translate(-5.7084 -7.4372)"/><path d="M1636.102,490.4606c-10.1192-12.5745-11.3218-19.4462-5.4976-29.1926,6.0886-10.1888,20.7988-15.9763,34.5758-13.4176,5.1141.95,10.1093,2.4172,14.36,5.6633,13.0519,9.9684,13.81,22.6231,1.9089,36.8488,10.9028,4.5374,21.433,9.4924,30.0091,17.799,16.0637,15.5585,21.3257,35.6546,24.0177,56.7816,1.395,10.9484,2.0134,21.9942,3.322,32.9555,2.3258,19.4818,13.2127,34.7249,25.087,49.3955,2.9638,3.6617,5.73,7.4523,9.6779,10.3269,6.212,4.5233,5.6781,8.5684-1.5562,11.7475-10.8613,4.773-22.5492,6.4148-34.194,7.7086q-22.17,2.4633-44.4578,3.8128c-4.6979.29-6.6105,2.0348-7.9,6.3734-3.8115,12.82-14.5878,21.0438-26.7636,21.03-12.5767-.0143-23.128-8.2872-26.9622-21.6219-1.1133-3.8719-2.9245-5.3875-6.9916-5.6976-22.6886-1.73-45.5-2.5164-67.7814-7.799-4.6139-1.0939-9.2707-2.19-13.3675-4.6678-4.9332-2.9836-4.9917-6.2453-.7452-10.1976,22.8778-21.2929,36.8428-46.5211,37.726-78.7437.5884-21.4672,4.1966-42.7458,16.6419-61.2589C1606.5463,504.4191,1620.1959,496.3337,1636.102,490.4606Zm22.466-5.1546c8.81.0325,15.322-5.2564,15.5133-12.5994.191-7.3362-7.0043-13.4665-15.638-13.3233-8.447.14-15.2994,6.01-15.2494,13.0624C1643.2444,479.5615,1650.0742,485.2746,1658.568,485.306Z" transform="translate(-5.7084 -7.4372)"/><path d="M1992.197,1002.9671c-20.1893-9.8886-40.7695-19.0842-60.4286-29.9468-10.8675-6.0048-19.5336-6.0566-30.38-.0182-18.3138,10.1958-37.5558,18.7262-56.4349,27.9006-1.4923.7252-2.9924,2.806-4.7921,1.2378-1.5451-1.3465-.5082-3.3679-.2608-5.13,3.4148-24.3269,6.6668-48.678,10.3241-72.9682.6592-4.3779-.5458-7.1231-3.4576-10.1015q-25.3311-25.91-50.35-52.1245c-1.2791-1.3347-3.8457-2.385-2.8747-4.8448.7841-1.9864,3.0806-1.4648,4.7946-1.7649,23.3163-4.0848,46.62-8.2442,69.965-12.16,5.2987-.8887,8.7569-3.0607,11.3375-8.09,10.7145-20.8819,21.88-41.5324,32.9125-62.2508.9369-1.7593,1.558-4.4195,3.6319-4.5842,2.7384-.2176,3.1375,2.8573,4.1407,4.7335,10.8553,20.301,21.907,40.5054,32.2622,61.06,3.053,6.06,7.1214,8.2826,13.4047,9.3014,22.6972,3.68,45.3189,7.8276,67.96,11.8524,1.8973.3373,4.5745-.2645,5.3084,2.09.7032,2.2558-1.6567,3.4857-3.0045,4.8775-16.4912,17.0315-32.9234,34.123-49.6264,50.945-3.78,3.807-4.6788,7.4977-3.8724,12.7041,3.6224,23.3856,6.8552,46.8322,10.11,70.2731C1993.1581,998.06,1993.9375,1000.3764,1992.197,1002.9671Z" transform="translate(-5.7084 -7.4372)"/><path d="M2014.7084,522.2338c.5276,8.3362-.1153,16.501-8.8226,22.5709-3.7781,2.6338-3.5162,9.0511-4.5589,13.8463-3.7233,17.1227-3.1892,34.5212-2.6654,51.88.2112,7.0016,3.4338,12.9144,7.4744,18.5247a51.8632,51.8632,0,0,1,9.9126,29.7052c.3773,17.0192-9.6725,27.4913-26.8685,27.7718-10.7744.1757-21.4406-1.7977-32.37-.2494-10.9052,1.545-21.2192,4.0644-30.6605,9.74a83.1557,83.1557,0,0,1-48.4351,12.2755c-9.0894-.5062-17.94-2.243-25.8245-7.0864-16.3136-10.0208-20.61-28.6488-9.7793-44.4087,10.556-15.3607,25.2329-25.562,42.7526-31.735,1.7006-.5992,3.4317-1.1122,5.1521-1.6545,18.6934-5.8917,21.2542-9.1232,20.9251-29.0844-.2522-15.3061-.6619-30.6455-4.0727-45.6964-.7776-3.431-2.0343-6.2979-5.5585-7.9076-4.2144-1.9251-6.3895-5.6761-7.2925-10.0413a47.0772,47.0772,0,0,1-.1488-18.8308c2.0056-9.9674,9.03-14.5308,21.1906-12.6792,16.8351,2.5634,33.7027,2.3688,50.61,2.465,8.6079.049,17.0716-1.13,25.57-2.18a48.5784,48.5784,0,0,1,9.4371-.4212c8.7234.64,13.5123,5.6447,14.0087,14.3735C2014.838,516.1112,2014.7084,518.8261,2014.7084,522.2338Z" transform="translate(-5.7084 -7.4372)"/><path d="M1640.26,1003.7784c-30.9323-.0015-61.8652.1117-92.7968-.0417-20.2194-.1-35.498-16.681-33.5444-35.9807,1.4635-14.4586,15.8487-24.0639,28.1748-18.8076a12.8878,12.8878,0,0,1,8.2976,11.4362,9.4715,9.4715,0,0,1-5.8568,9.8074c-2.1626,1.0041-4.3883,1.5008-6.4645.1909-1.7624-1.1121-3.9687-2.743-.1138-4.08,2.7472-.953,3.6566-2.74,2.4422-5.1917-1.2186-2.4594-3.7016-2.3459-5.9683-1.8127-5.1164,1.2037-7.7116,7.7363-5.4869,14.0568,3.128,8.887,10.6512,12.0295,18.9538,13.157a101.5808,101.5808,0,0,0,24.34.1875c6.1268-.6493,11.4214-3.0041,13.9759-9.1459,2.2912-5.5091-.8478-11.5895-6.14-11.8278-2.9919-.1347-6.4811.0012-4.7752,4.779.4117,1.1532.9016,2.3417-.4035,2.8353a3.9658,3.9658,0,0,1-3.1539-.3907,7.389,7.389,0,0,1-2.9417-9.4979c1.2675-3.1211,1.06-5.5471-1.1172-8.0566-7.4824-8.6262-10.9612-19.0358-13.2967-29.9746a30.9976,30.9976,0,0,0-2.6686-8.3259c-2.6407-4.853-6.8844-7.1192-12.4642-5.4722-3.2483.9586-4.936,3.4649-3.9926,6.788.9543,3.3616,3.545,3.6988,6.4753,2.2938,1.1523-.5525,2.3708-1.7887,3.4841-.1592.8088,1.1839.5057,2.5869.0273,3.9-1.7872,4.9069-8.2046,7.3645-13.6767,5.1073-5.48-2.26-8.8294-6.4815-9.2965-12.3054-.5358-6.6811,1.7839-12.5743,7.4769-16.47a25.1138,25.1138,0,0,1,19.977-4.2082c3.1581.6753,5.1437.0194,4.6591-3.4594-2.1109-15.1528-5.5145-29.8076-17.3572-40.8383-5.3419-4.9755-11.8335-5.46-18.4162-3.924-6.4862,1.513-10.0515,8.8271-7.8543,15.025a7.4222,7.4222,0,0,0,6.5319,5.136,4.0344,4.0344,0,0,0,3.9107-2.241c.8116-1.3989.06-2.2912-1.0747-3.3779-3.23-3.0942-2.4273-6.0108,1.7883-7.3063,4.8755-1.4985,9.7291,2.1673,10.35,7.8172.75,6.8169-2.6958,12.2283-9.3715,14.7191a19.1074,19.1074,0,0,1-22.1526-7.1085c-7.1548-10.8119-3.7325-26.7748,7.6442-35.655,14.5908-11.3891,38.5839-11.4316,56.84-.3468,15.3958,9.3484,23.6541,23.7329,29.1138,40.2083,1.9148,5.7783,3.522,11.6818,5.8092,17.3088,6.1437,15.1142,17.7951,23.7611,33.6367,26.1243a83.3134,83.3134,0,0,0,31.6289-.887c9.4536-2.2344,16.2989-7.2895,19.8416-16.5781,2.087-5.4721,4.1626-10.9727,7.5519-15.8527,7.9512-11.4481,22.5856-16.653,35.1821-12.1733,9.1661,3.26,14.3359,10.0957,15.4112,19.63.765,6.783-2.6381,11.7317-8.6942,14.7035-4.9127,2.4107-9.2209.8015-13.066-2.5456-1.01-.8792-2.0855-2.0358-1.5273-3.4934.5085-1.3277,1.8155-.9646,2.9126-.6715,3.3027.8826,5.9371-.1786,7.3141-3.2186a7.2579,7.2579,0,0,0-.696-7.7288,8.7467,8.7467,0,0,0-8.9871-3.3736c-5.8845,1.192-10.2036,6.4971-10.8548,13.1149-.6805,6.9151,1.1108,13.4751,2.95,19.97,4.28,15.1131,3.7188,29.0662-8.794,40.4611-2.0925,1.9056-2.1151,3.7861-.3419,5.859,9.1537,10.7014,19.5169,18.8577,34.8344,16.9223,9.2919-1.1739,14.5678-8.3229,12.478-17.27-.9072-3.884-3.139-6.5011-7.5193-6.3343a4.09,4.09,0,0,0-4.0222,3.0658c-.6058,2.0359-.0289,3.4073,2.2655,4.046,4.81,1.3388,1.6889,3.0849-.0775,4.09-4.7957,2.7275-11.7347-2.4122-12.174-8.8649-.492-7.2269,6.0768-13.6374,14.3757-14.0294,13.1333-.62,24.3248,12.4939,22.54,26.4117a33.8764,33.8764,0,0,1-33.9356,29.8529C1701.673,1003.8418,1670.9663,1003.78,1640.26,1003.7784Z" transform="translate(-5.7084 -7.4372)"/><path d="M2026.2456,244.0238c3.5791-.5991,6.6749-1.1853,9.7923-1.6153,2.0855-.2878,4.292-.1292,5.199,2.1121.9777,2.4161-.923,3.8314-2.6481,4.86a56.2094,56.2094,0,0,1-14.7532,6.6633c2.76,1.52,5.53,2.9652,8.2106,4.5615,1.1607.6913,2.2743,1.7274,1.957,3.2676-.3829,1.8592-2.029,2.2805-3.6186,2.4659-3.7626.4388-7.169-.8-10.2933-2.6924-6.1569-3.73-11.5928-2.7283-16.5327,2.1939-6.3774,6.3545-12.0909,13.4586-20.3969,17.6-2.1083,1.0511-2.074,3.2409-2.3408,5.2914-.3469,2.6678-.2215,5.8547-1.6536,7.8424-5.44,7.5508-1.5931,12.2174,3.4841,18.05,15.0277,17.2646,17.9213,37.0985,8.7878,58.0105-9.2169,21.1028-25.8234,33.6128-48.6923,36.0654-27.8723,2.9891-50.903-5.7628-65.0316-31.528-12.6434-23.0564-8.3568-49.1738,10.8977-67.3817,3.1751-3.0024,2.8609-5.0992,1.9931-9.1066-2.5506-11.7789-8.2682-20.7226-18.6431-26.8944-2.0247-1.2045-3.2723-3.6872-4.9406-5.5236-6.9581-7.659-10.9147-8.3906-20.1287-4.106-4.0545,1.8854-9.9938,4.8666-12.0078.0648-2.0809-4.9616,5.3374-5.1452,8.5235-8.02-4.4186-2.0278-8.9773-3.9379-13.35-6.2058-2.09-1.0837-4.9-2.4687-3.5308-5.5872,1.04-2.3673,3.5281-2.467,5.9056-2.0427,2.8707.5123,5.75.9765,8.7078,1.4754,1.3541-2.2241-3.4124-4.7629.0411-6.3466,2.7106-1.2431,5.2606.5876,7.2251,2.5682,8.4606,8.5293,19.28,14.0767,28.03,22.2672,2.2414,2.0981,5.3509,3.2965,8.1254,4.79,2.7508,1.4807,5.0143,1.4126,6.6647-1.87a41.3767,41.3767,0,0,1,14.7709-16.4171c2.6718-1.7206,2.3731-3.1163.44-5.2887-9.5677-10.7515-10.4322-22.5525-3.5208-34.9364,1.73-3.1,1.9093-4.8231-1.9556-5.8768-2.8888-.7875-5.41-2.2952-6.3575-5.4986-.7227-2.4446-1.2968-4.8819.7035-7.0071,1.8226-1.9362,4-1.4917,6.2871-.92,6.84,1.709,7.2607,1.2608,6.1428-5.7157-.5344-3.3357-.8992-6.6994-1.4644-10.03-1.62-9.5414.8036-14.3972,9.735-18.0549a44.0463,44.0463,0,0,1,21.1827-3.3712c8.3324.8275,11.9024,4.8192,12.36,13.1965.32,5.8517.9867,11.6937,1.072,17.5462.0794,5.4492,1.59,8.0756,7.673,6.2354,2.712-.8206,5.8292-.5629,8.74-.3989,3.5265.1987,7.1633,1.3272,7.8733,5.1706a6.9228,6.9228,0,0,1-5.6722,8.1123c-6.897,1.385-5.9042,4.013-3.0915,8.9133,5.5608,9.6879,5.0161,19.94-1.7125,28.6356-4.6105,5.9585-3.9662,9.0207,1.9381,12.9448a29.0957,29.0957,0,0,1,9.7891,11.9381c1.9651,4.147,4.4115,4.3291,8.0783,2.3615a56.5213,56.5213,0,0,0,12.7337-8.8693c7.1649-6.9052,16.4494-11.1,23.2733-18.4652,1.6209-1.7495,4.3561-3.3925,6.702-1.8018C2029.77,239.5692,2025.7733,241.4422,2026.2456,244.0238Z" transform="translate(-5.7084 -7.4372)"/><path d="M1637.2643,259.6435c.2146-32.4846,24.2276-64.8987,55.4015-67.142,4.3767-.3149,6.5417-2.0152,5.7241-6.8487-.5594-3.3071-.1539-6.7657-.4817-10.1272-.2844-2.9168-.6293-5.527,3.4241-5.8348,2.9986-.2277,1.8992-2.1341,1.642-3.937-1.1648-8.1646,4.786-15.6536,12.5341-15.9617,7.139-.284,13.41,6.1967,13.2909,14.0547-.0457,3.0069-.3315,5.0212,3.4189,6.73,3.8213,1.7414,1.86,6.5213,1.5346,9.9023-1.0239,10.65-1.1733,10.6359,9.5335,12.3968,25.2564,4.154,48.907,31.9483,50.6678,58.3593,1.5609,23.4141-7.6048,43.1541-19.4836,62.1195-5.3831,8.5947-11.0847,17.0305-17.193,25.1223A309.0107,309.0107,0,0,0,1720.0632,403.5c-.93,2.173-1.2673,5.5726-4.0146,5.7549-2.943.1953-3.4035-3.2667-4.2558-5.3861-11.1227-27.66-27.383-52.228-44.9266-76.12-11.1044-15.1226-20.7892-31.1536-26.2574-49.3554A79.5879,79.5879,0,0,1,1637.2643,259.6435Z" transform="translate(-5.7084 -7.4372)"/><path d="M2245.3029,634.389c-1.1754,8.0426,1.36,15.2909,1.0984,22.6582-.0677,1.91,1.1767,4.3912-.9547,5.6036-1.7633,1.0031-3.2129-1.0746-4.8247-1.7315-6.9031-2.8132-10.9874-7.2076-10.2855-15.3919.3793-4.4221-.8313-8.9591-1.0312-13.4573-.2722-6.1272-2.9486-10.1391-9.8216-11.7958.6386,7.6543,1.232,14.95,1.8674,22.2431.1546,1.7735,1.0089,3.8793-.5768,5.1024-1.6975,1.3092-3.3175-.4939-4.9471-1.1051-7.9624-2.9865-11.4884-8.4772-10.9893-17.1695.3068-5.3429-.7293-10.7775-1.3334-16.1517-.314-2.7934-9.4071-9.8006-12.1061-9.5933-2.4357.187-2.0076,2.1016-2.0226,3.5428-.0423,4.0627-.0282,8.1329.1747,12.19.2582,5.1616-1.163,6.9341-5.9754,3.5209-3.4954-2.4792-7.1557-4.7279-10.7652-7.044-1.7551-1.1262-3.1148-1.6924-3.7771,1.3049-1.7109,7.7433.345,13.4869,6.8253,18.0022,2.9636,2.0649,5.7089,4.5816,8.9232,6.1206,7.9624,3.8123,9.8531,10.0625,9.1046,18.2924-.4262,4.6847-1.2564,5.7937-5.3177,2.8755-5.9864-4.3014-12.1142-8.4062-18.6289-12.9036-1.9631,6.4288-.873,10.7124,4.5925,13.763,3.3328,1.86,6.0992,4.7794,9.493,6.4776,7.85,3.9275,11.3215,9.8357,9.7173,18.5585-.3054,1.6617.9957,3.9026-1.1455,4.8649-1.6691.75-2.82-1.013-4.0709-1.8663-5.0338-3.4329-10.0605-6.8783-15.0222-10.414-2.9894-2.13-4.4607-1.6586-4.4547,2.1865.0084,5.4189.0558,10.8406-.0965,16.256-.1259,4.4733-1.8209,8.4994-6.8129,8.4722-5.3083-.0289-6.1258-4.3392-6.09-8.77.0544-6.6948.0142-13.39.0142-21.5014-7.3809,5.0988-13.6736,9.3224-19.8267,13.74-4.03,2.8935-5.5739,2.527-5.9225-2.8946-.4877-7.5839.7631-13.6126,8.3546-17.3485,4.2018-2.0677,7.6111-5.7033,11.7406-7.9709,5.589-3.0694,6.5219-7.43,4.9027-14.1034-6.6971,4.64-12.9717,8.8305-19.069,13.2648-4.3987,3.1989-5.4417,1.8-5.91-3.0958-.7371-7.7131,1.0472-13.5883,8.4368-17.3173,3.59-1.8116,6.4328-5.1836,10.0813-6.7835,8.4944-3.7248,7.3157-10.8719,7.16-17.806-.0769-3.4346-1.8058-3.0243-3.9214-1.6423-4.1577,2.7157-8.3079,5.4428-12.4752,8.1436-3.32,2.1515-5.1239,1.2786-4.94-2.7285.2739-5.9833.7173-11.9589,1.106-18.218-13.9079,5-14.829,6.2864-15.4771,19.1533-.2607,5.1738-.8453,10.3388-1.48,15.4834-.3809,3.0874-10.7885,11.0537-13.7146,10.7575-2.52-.255-1.8779-2.2208-1.79-3.6147.3535-5.6194,1.0581-11.2223,1.2367-16.844.0692-2.1782,1.58-6.02-1.6105-6.2594a6.4918,6.4918,0,0,0-6.9059,6.1072c-.56,5.3809-1.3688,10.77-1.4206,16.162-.0817,8.5144-3.3684,14.3552-11.4746,17.8331-4.6159,1.98-5.7525.8206-5.38-3.5831.64-7.5581,1.3273-15.1122,2.1031-23.8966-6.6242,3.7923-12.2585,6.9822-17.8564,10.2348-4.0092,2.33-8.1951,3.906-11.2637-.9214-3.2641-5.1351.6446-7.8688,4.475-10.1559,5.6-3.3439,11.3014-6.5189,17.7062-10.1944-6.8457-4.713-14.17-6.8994-20.8087-10.3841-1.55-.8135-3.845-1.1475-4.0518-3.16-.2275-2.2139,2.3033-2.4423,3.6379-3.52,6.2785-5.0725,12.6678-5.8555,19.7141-1.2,3.5433,2.341,7.82,3.5419,11.5221,5.68,5.5511,3.2057,10.1952,2.0672,15.2726-2.5486-7.3856-3.4448-14.2489-6.74-21.1938-9.8534-4.8724-2.1841-4.3352-3.8479-.229-6.655,6.2936-4.3023,12.2928-6.2532,19.1918-1.4114,2.3706,1.6637,5.4929,2.2657,7.8373,3.9556,9.1329,6.5828,16.7247,3.5132,24.5184-3.9766-5.17-2.6417-10.1343-5.1168-15.0321-7.7165-1.524-.809-3.969-1.0343-4.0774-3.0994-.1339-2.55,2.6229-2.7545,4.2824-3.6544,4.7293-2.5648,9.5649-4.9335,14.49-7.4465-8.5253-8.7154-12.4879-9.51-22.5682-4.79-3.066,1.4355-6.4363,2.48-9.1009,4.4649-7.7993,5.8085-14.2726,2.3958-20.8953-2.17-3.3218-2.29-2.4529-3.7678.5112-5.17,7.2734-3.4411,14.5671-6.8392,22.1807-10.4086-5.062-4.7269-9.8148-6.0243-15.5856-2.45-3.6244,2.2451-8.0233,3.3008-11.4921,5.7241-7.8616,5.4921-14.3123,2.3324-20.8878-2.3324-3.3-2.341-2.3876-3.6939.6515-5.1015,7.1229-3.2989,14.2122-6.67,22.6-10.6168-6.6527-3.8872-12.2566-7.0671-17.7611-10.411-3.72-2.26-8.0317-4.7562-4.9921-10.0235,3.1082-5.3863,7.4783-3.472,11.6734-.9935,5.5881,3.3014,11.2468,6.4833,17.7041,10.1928-.8316-8.596-1.5571-16.1595-2.2972-23.7215-.4484-4.5815.3456-6.139,5.5171-3.8634,8.0782,3.5547,11.6112,9.1063,11.4066,17.8036-.1158,4.9251.7868,9.8734,1.2147,14.8126.1572,1.8136.2179,3.7119,1.8111,4.9194,1.76,1.3338,3.6148,3.549,5.8474,2.7132,2.3318-.873,1.143-3.6186,1.0492-5.4681-.3086-6.0759-.9547-12.1339-1.3982-18.2041-.1246-1.7065-.7656-3.87,2.4783-3.3,6.6949,1.1756,12.968,8.3052,13.4494,15.2956q.5809,8.4322,1.4518,16.8439c.5089,4.9687,8.6015,12.8875,13.15,12.8854,3.01-.0014,2.0423-2.4528,1.9722-3.9514-.21-4.5009-.7473-8.9855-1.05-13.4835-.2884-4.2829,1.2882-5.4823,5.1031-2.9823,5.02,3.2895,10.1017,6.4837,15.5737,9.9857,1.9466-10.1471,1.7037-18.33-8.55-22.851-2.8326-1.249-4.9728-4.0718-7.8069-5.3134-8.5068-3.7269-9.1822-10.6477-8.5775-18.5307.3265-4.2551,1.8153-4.6228,4.979-2.4215,6.452,4.49,12.9294,8.9424,19.8354,13.7136,2.0036-6.4137.8894-10.7808-4.7972-14.0067-4.2993-2.439-8.1627-5.6428-12.2416-8.4753-7.6315-5.3-9.4227-9.92-7.6508-18.8959.91-4.608,3.1447-2.6366,5.2023-1.2317,6.3087,4.3073,12.5591,8.7,19.395,13.45,1.7468-6.8513.6548-13.12.92-19.2923.1973-4.5886-.2282-9.9434,6.18-10.0006,6.6986-.06,6.6886,5.502,6.7844,10.3234.1156,5.8137.0273,11.6314.0273,18.3053,7.4872-3.3691,12.8189-8.2182,18.7646-12.0816,1.4732-.9571,2.979-2.8729,4.7039-2.1271,2.3305,1.0077.87,3.608,1.2449,5.4806,1.667,8.3231-2.1218,13.5975-9.1932,17.4938-4.1264,2.2736-7.8072,5.3586-11.6762,8.0959-1.66,1.1745-3.4793,2.3-3.641,4.6015-.1556,2.2147-1.1049,5.04.6972,6.4484,1.9353,1.5128,3.5715-1.1035,5.1468-2.1471,4.8914-3.2406,9.64-6.6956,14.4845-10.0085,1.4361-.9821,3.0711-2.4362,4.1486.4719,2.2809,6.1562-.8294,15.6164-6.4452,19.563-3.5086,2.4657-6.8,5.3506-10.5739,7.3041-6.5637,3.3978-8.4253,8.4753-7.7874,15.5373.4263,4.7186,1.1336,6.5277,5.6923,3.2389,3.29-2.3736,6.8265-4.4031,10.22-6.6365,3.5166-2.3144,4.806-1.13,4.7476,2.7785-.0876,5.8486-.0228,11.6993-.0228,17.5238,10.8822-2.9669,13.2182-5.6117,14.381-16.334.34-3.1365,1.2687-6.3274.9564-9.3943-.917-9.0031,3.0019-14.6184,11.1827-17.7246,1.5974-.6065,3.0744-2.5034,4.8861-1.0174,1.3524,1.1095.8025,2.9389.6392,4.4915-.636,6.05-1.3453,12.0924-1.918,18.148-.1215,1.284-.2719,3.1365.448,3.8075,1.4025,1.3071,2.84-.3814,4.2285-.9516,4.04-1.6587,4.5314-5.3114,4.89-8.9484.5092-5.1584.7987-10.3388,1.3273-15.4949.8373-8.1655,5.2547-13.3547,12.8429-15.7833,3.62-1.1586,3.2228,1.1719,3.0872,3.19-.3928,5.8451-.9918,11.6768-1.3418,17.5238-.1174,1.9594-1.0081,4.5321.7183,5.7757,1.9422,1.3991,3.6961-.89,5.384-1.7986,4.3707-2.3516,8.6249-4.919,12.9414-7.3724,3.9324-2.235,7.5822-2.02,9.8185,2.2085,2.1226,4.0136-.1012,6.8935-3.5337,8.97-3.09,1.8687-6.2435,3.6308-9.3642,5.4482-3.0682,1.7868-6.13,3.584-9.94,5.8125,8.0484,3.8531,15.0876,7.3627,22.25,10.6005,4.4534,2.0133,3.5184,3.4115.1673,5.7963-6.5766,4.68-12.8887,6.8268-20.3319,1.54-3.4365-2.441-7.9073-3.3771-11.5514-5.586-5.5-3.3336-10.0534-2.7622-14.75,2.6639,7.0591,3.3726,13.8426,6.7187,20.7192,9.8612,4.4791,2.0469,4.0968,3.6417.2763,6.2745-6.1763,4.2563-12.1141,6.6212-19.0843,1.6493-2.3435-1.6717-5.6014-2.076-7.91-3.78-9.2922-6.8591-17.0554-3.5311-25.0434,3.6027,5.5763,2.8915,10.8743,5.7227,16.25,8.3982,3.9241,1.9531,4.297,3.57.0325,5.6325-5.2609,2.5443-10.3882,5.3651-15.6726,8.1181,8.4975,8.7341,12.4234,9.5217,22.22,4.8021,3.2521-1.5668,6.9769-2.4621,9.7794-4.593,7.5519-5.7422,13.7772-2.3372,20.2133,1.9342,3.4793,2.3092,3.221,3.8762-.4351,5.5165-3.4994,1.57-6.9081,3.3405-10.3791,4.9756-3.4529,1.6264-6.9334,3.1938-10.9621,5.0445,4.0036,4.8629,8.0641,6.3728,13.5864,3.3553,4.1507-2.268,8.9448-3.5109,12.774-6.1826,7.7559-5.4112,14.1968-2.7318,20.8645,1.9046,3.1566,2.1949,2.869,3.6455-.286,5.1716-7.0565,3.4132-14.1287,6.794-21.8983,10.526,5.5316,4.7846,11.5588,7.3074,16.9569,10.7745,3.7315,2.3967,7.8213,4.9117,4.744,10.1217-2.9574,5.0072-7.141,3.398-11.1577,1.0576C2256.9257,641.0152,2251.2754,637.8138,2245.3029,634.389Z" transform="translate(-5.7084 -7.4372)"/><path d="M2218.5236,864.5938c10.8468,6.1724,20.6019,9.4574,31.1886,9.7387,5.5882.1486,6.1684,2.3566,3.5133,6.6764-4.7188,7.6782-11.7053,12.2773-21.11,14.9163,9.3582,6.91,19.38,8.9439,29.5827,10.5312,6.8884,1.0716,7.2315,1.7612,3.2941,7.7644-13.7461,20.9586-33.488,30.8687-58.275,30.96-4.2678.0157-7.1949.2852-6.3512,5.5575.6861,4.2871-2.5837,10.9162,6.1807,10.4076.45-.0261.9029-.0021,1.3544.0046,17.19.2529,17.1844.2513,11.828,16.9992-2.1987,6.8744-4.4706,13.728-6.51,20.65-1.0576,3.59-3.1181,5.0355-6.8732,5.0143q-28.7853-.1621-57.5719-.0008c-3.777.0213-5.7339-1.5-6.8291-5.0615q-4.8716-15.846-10.1432-31.5676c-1.6122-4.7756.3035-6.1493,4.7135-6.036,4.0609.1044,8.1333-.1432,12.19.0244,8.7924.3632,5.415-6.2323,6.1181-10.4922.8842-5.3573-2.2123-5.4813-6.4025-5.4909-25.396-.0581-45.2431-10.53-59.01-32.11-2.377-3.726-3.563-6.0862,2.81-6.6281,10.6087-.9019,20.8909-3.4482,30.5793-10.1517-7.9454-3.1554-15.2529-6.5317-19.7567-13.65-1.2858-2.0323-3.5911-4.0937-2.4228-6.641,1.1117-2.4237,3.9975-1.4907,6.145-1.6508,10.0777-.7509,19.4021-3.8124,29.4788-9.4664-10.0224-.9655-16.8916-5.3146-21.652-12.7083-3.7117-5.7647-2.8935-7.1791,3.9415-7.6946a76.7523,76.7523,0,0,0,27.7187-7.3872c-9.2824-2.6815-16.0966-6.675-20.4078-14.15-2.5161-4.362-2.04-6.3415,3.5314-6.7471,20.5726-1.4978,35.0124-14.7268,38.8109-34.9654.6063-3.2308.5163-5.359-3.6594-4.9705-3.5465.33-4.8748-1.2261-2.5919-4.288,2.92-3.916,3.35-7.5.2875-11.62-2.0633-2.7768-1.7025-5.3938,2.5629-5.1344,4.8611.2957,8.1985-1.3374,10.2444-5.8986,1.5436-3.4413,3.7475-3.1251,5.1369.0715,2.0091,4.6227,5.32,6.2251,10.1768,5.8238,3.23-.267,5.0578,1.3722,2.9242,4.4742-2.902,4.2187-3.4242,7.9946-.1019,12.2613,1.93,2.4786.9233,4.4012-2.323,4.2246-4.6859-.255-4.3968,2.2815-3.71,5.5891,4.2021,20.234,18.3457,32.95,38.5233,34.507,5.88.4537,6.4945,1.7981,3.3806,7.1244-4.23,7.2363-10.94,11.0591-20.0395,13.65,9.2988,4.6,17.9486,6.3929,26.8336,7.4334,2.3364.2736,5.5459-.8778,6.6015,2.03.8909,2.4538-1.138,4.7194-2.5749,6.6957C2235.0005,859.8927,2228.6651,864.18,2218.5236,864.5938Z" transform="translate(-5.7084 -7.4372)"/><path d="M2098.1646,166.6719c.3117-2.3408-1.4515-4.9827.9827-6.4591,2.5723-1.56,3.7245,1.6959,6.2,2.5375-1.7292-3.511-3.7708-6.5535-3.751-10.2435.0086-1.6034.21-3.285,2.0158-3.8934,1.5241-.5136,2.4667.6615,3.4509,1.6037,5.38,5.15,8.3543,11.7191,10.8105,18.5475a84.1262,84.1262,0,0,1,4.9043,36.8366c4.89-1.16,6.2929-4.0552,6.4048-8.0424.1687-6.0057-1.86-11.5336-3.5466-17.1435-1.0391-3.4561-2.2382-6.8773-3.0317-10.39-.5626-2.4907-.3952-5.4007,2.3811-6.39,2.8426-1.0129,4.52,1.4058,5.8231,3.5539a35.7227,35.7227,0,0,0,3.4831,5.5793c-1.1264-4.3136-2.4117-8.5943-3.3134-12.9544-.4617-2.2328-.1866-4.8664,2.34-5.7627,2.57-.9115,4.3824,1.0647,5.3788,3.0892,1.4812,3.0091,2.4787,6.2563,3.6414,9.296.9669-2.93-1.0161-5.7468-1.2138-8.7573-.1508-2.2976-.7884-4.7048,1.9536-5.8139,2.8766-1.1636,4.88.6263,6.2094,2.7883,4.9618,8.0673,5.9789,16.8992,4.4632,26.0935-2.0572,12.4783-9.649,21.6435-18.2986,30.13a20.8594,20.8594,0,0,1-3.32,2.109c8.5553,3.2727,9.6215,9.2849,2.5657,14.9406-5.2874,4.2381-7.354,8.01-5.15,14.6094.9116,2.73-.3048,6.2123-.7126,9.3317-1.0252,7.8431,1.6674,13.0912,8.8608,16.4643a49.3167,49.3167,0,0,0,20.406,4.2308c15.5775.2321,31.17-.2494,46.7393.1733,19.0837.5181,34.1189,8.407,44.6044,24.9916,6.4928,10.2693,5.5164,21.082,4.4769,32.0787-.1655,1.75-.7671,6.1333-4.3845,2.0187-1.4907-1.6954-1.43-.2814-1.8412.78-1.8289,4.72-1.4872,8.9078,2.97,11.9727,6.74,4.6353,9.3115,10.562,6.8562,18.6868-1.1348,3.7554.2083,7.6761,1.4012,11.2946,3.39,10.2827,3.4156,21.43,8.1782,31.3477a6.052,6.052,0,0,1-.335,5.8833c-4.8113,7.8076-10.9436,14.0362-20.3692,15.9985-1.5479.3223-3.206.66-4.3981-.81a4.0732,4.0732,0,0,1-.0419-5.0734c1.7966-2.57,3.9538-4.8916,6.0025-7.2808,2.21-2.5772,4.7076-5.0436,4.4441-8.8045-.8843-12.6228-1.8461-25.2524-8.2173-36.629-1.1555-2.0631-1.9232-4.6251-5.7227-5.7408-.7,11.654-9.814,16.5721-17.4882,23.1983-7.3653,6.36-15.2,12.704-19.9837,21.6324-.2113.3944-.44,1.0159-.756,1.0828-7.4007,1.5686-13.24,7.3724-21.1112,7.711-2.5589.11-3.612-1.2944-4.4451-3.3165-.8379-2.0339-1.0357-3.9658.7-5.61a10.4607,10.4607,0,0,1,2.7128-1.9962c14.606-6.6613,24.8016-18.4676,35.4679-29.85,7.8944-8.4242,8.9625-17.7735,5.7231-28.209-1.4152-4.5593-5.0522-6.3942-9.3425-6.5153a168.3429,168.3429,0,0,1-54.8559-10.7339c-3.7387-1.4042-6.5817.1554-8.683,3.3332a18.8443,18.8443,0,0,0-3.2439,8.8181c-1.4462,17.2339-6.7332,34.0494-5.22,51.6325.5713,6.637-7.1233,17.1007-13.3371,19.5437-3.06,1.203-6.4247,1.9852-8.8429-.7348-2.46-2.7669.3258-5.2635,1.8836-7.0941,13.6973-16.0961,8.8838-35.3882,9.4395-53.7205.0939-3.0965-.87-6.2288-1.3969-9.336-.0682-.4024-.4435-.7527-1.3958-2.2823-3.0346,16.913-10.2254,31.9636-9.4276,48.6258.2483,5.186-.57,9.18-5.356,12.0518a10.9433,10.9433,0,0,0-5.3784,7.5074,4.1259,4.1259,0,0,1-4.238,3.6448c-3.0259.1076-6.6657,1.76-8.7709-1.5587-2.2795-3.593.9081-5.8924,3.0786-7.9932a29.2592,29.2592,0,0,0,9.1664-23.1812,103.1322,103.1322,0,0,1,3.14-29.4633c2.4251-9.6934.92-18.8188-4.7716-27.7352-11.5541-18.099-14.6543-38.0631-10.1652-59.1271.2351-1.1026.5745-2.1856.7641-3.2949,1.5443-9.0318,1.537-9.0331-7.167-6.6439-5.16,1.4164-11.1665-1.2189-13.0467-5.8579-2.288-5.6446,1.8866-7.6546,5.7148-9.74a12.6983,12.6983,0,0,0,5.71-6.4618c2.0583-4.84,4.6328-9.2739,10.8833-11.9174-6.8676-1.9683-12.86-1.8153-18.0592-4.4838a30.4352,30.4352,0,0,1-6.2374-3.9953c-2.0488-1.8-3.8356-4.1408-2.3566-7.1283,1.5914-3.2143,4.2856-2.6624,7.0112-1.6174a23.3977,23.3977,0,0,0,2.7518.6583,85.4581,85.4581,0,0,1-2.485-8.7584c-.3773-2.16.5864-6.4286,1.4181-5.934,6.5551,3.8981,7.7355-6.5664,12.4106-4.5233,3.6781,1.6076,3.0994,6.2663,2.9542,9.7719-.2569,6.1953,1.7941,11.057,6.9739,14.4774,2.0751,1.37,4.3541,2.8522,6.8646,1.1846,2.2467-1.4925,1.87-4.06,1.5457-6.22-1.3059-8.6973-7.4933-14.7287-12.1542-21.5791-1.0081-1.4818-2.47-2.6491-3.53-4.1026-2.0108-2.7592-4.1822-5.702-2.2765-9.2723C2091.3461,164.4234,2094.9686,166.0481,2098.1646,166.6719Z" transform="translate(-5.7084 -7.4372)"/><path d="M1571.6188,340.9087c.2378,14.391-5.6456,23.4762-12.4106,32.0617-8.5353,10.8324-17.4634,21.3676-20.6078,35.3387-.2631,1.1692-.6662,2.9528-2.4128,2.7149-1.6066-.2189-1.6819-1.91-1.985-3.2-2.768-11.7741-9.5053-21.3151-17.0144-30.4467a94.67,94.67,0,0,1-11.5239-16.6769c-6.1609-11.9942-6.2787-23.8913,1.0144-35.3579,2.4708-3.8847,1.8325-5.35-2.1353-7.4812-23.76-12.763-35.593-33.4149-34.7675-59.803.894-28.5763,14.7686-49.814,42.1767-60.5054,5.5689-2.1723,7.5663-4.2476,6.6344-10.6208-.7437-5.0862-4.4393-12.4243,4.46-15.3854.3721-.1238.0852-2.4727-.029-3.7732-.7342-8.3557,5.07-15.41,12.9864-15.7373,7.8167-.3228,13.9674,5.8175,13.8614,14.1623-.0409,3.2184-.1626,5.3338,3.6452,7.2937,3.7655,1.9381,2.1693,7.225,1.3082,10.6029-2.002,7.8536.4266,11.2075,8.1089,14.3489,23.751,9.7122,37.1849,28.1825,39.6915,53.6685,2.8025,28.4929-8.0639,50.7468-33.16,65.2021-4.5917,2.6449-5.5856,4.3953-2.5914,9.03C1570.8781,332.5511,1571.6161,336.9867,1571.6188,340.9087Z" transform="translate(-5.7084 -7.4372)"/></g><g id="f601e100-6490-4833-a913-5169d1bf355e" data-name="Layer 3"><path class="b411ae9d-f82d-40e5-a80a-eaab0ef1ef7a" d="M2565.2,852.2264c1.7633,8.0125,3.4493,16.043,5.3176,24.0308a16.1269,16.1269,0,0,0,9.0594,11.1945c1.0136.4969,2.0438.9732,3.0068,1.5572,2.2943,1.3916,5.3461,2.5465,5.4819,5.5052.163,3.55-4.021,2.6608-6.4873,4.4369,4.744,3.307,6.078,8.0756,7.5132,12.8192,1.0917,3.6081.5945,6.9662-2.4517,9.1421-3.0637,2.1883-5.5637-.3886-7.7685-2.1847-2.4387-1.9867-4.5681-4.3515-6.8512-6.5317-.7864-.7509-1.9056-2.2209-2.4068-2.0437-8.0475,2.8439-7.1639-3.0792-7.7662-7.6664a15.6116,15.6116,0,0,0-1.1477-4.5874c-3.1659-6.7164-8.7135-12.0868-10.8261-19.4373-1.9656-6.8389-4.2024-13.6-6.8637-22.141.6821,18.7137,6.4165,34.1179,13.2332,49.1373,7.5833,16.7087,13.7546,33.8454,17.4686,51.8348,2.9641,14.3568,9.01,26.484,23.4227,32.6466,3.19,1.3642,2.7839,3.053.2121,4.8123-10.5493,7.2165-21.6314,11.5566-34.24,5.5794-5.3879-2.5543-9.9455-2.1439-15.2746.7862-18.62,10.2374-37.4544,10.7681-55.8165-.8272-4.7057-2.9717-9.0311-2.0911-13.4991-.1786-11.98,5.1279-22.8435,2.7143-33.2422-4.3874-3.8035-2.5974-5.1625-4.2645.24-6.5075,9.8336-4.0824,15.7947-11.9109,18.9958-21.7318,2.4406-7.4878,4.3405-15.1761,6.0614-22.8692,4.1281-18.4548,13.1-35.053,19.91-52.4705a103.3679,103.3679,0,0,0,7.148-34.0155c-1.9242,6.2209-3.87,12.4353-5.7653,18.6649a38.0264,38.0264,0,0,1-6.1331,12.7523c-3.9211,4.9479-6.4942,10.2421-6.7232,16.6-.0677,1.8774-.9195,4.7329-2.3841,4.3118-7.0174-2.0173-8.8432,4.4827-12.9254,7.1928-2.8655,1.9022-5.4511,5.8963-9.3453,3.0037-3.4994-2.5992-3.0361-6.6381-1.8137-10.5669,1.2974-4.17,3.0234-8.0008,6.7175-10.755-1.5979-2.54-6.18-1.0452-6.14-4.5056.0388-3.3525,3.1916-4.8162,5.82-5.9373,7.86-3.3525,11.6871-9.26,12.906-17.6.937-6.4111,2.8411-12.6809,3.3973-19.3392-2.3773,6.0133-4.49,12.1488-7.2014,18.0076-3.118,6.7382-6.13,13.8767-15.2136,14.5431-2.1329.1566-2.7582,2.1183-3.7351,3.59-4.5194,6.8081-10.5435,11.1753-18.9916,11.0889-3.5537-.0363-5.1677,1.88-6.7224,4.6081A33.0041,33.0041,0,0,1,2403.8854,919.6c-1.4369.4419-3.0705,1.4294-4.4335-.018-1.3876-1.4737-.0932-2.9679.3325-4.4036,5.2553-17.7248,11.4065-35.2566,13.9176-53.6427,1.7362-12.7125,1.87-25.6449,3.6374-38.3515,2.3354-16.7928,10.04-30.7621,24.3808-40.5218a40.7471,40.7471,0,0,1,18.2439-6.7274c13.5873-1.6768,23.5368,6.25,24.2776,19.8747a25.3959,25.3959,0,0,0,6.3839,15.9985c4.1965,4.7509,7.794,4.1329,10.1554-1.582,1.3022-3.1513,2.2278-6.4189,1.086-9.885a4.7213,4.7213,0,0,1-.3663-1.9875c1.4026-10.2626,2.2568-19.6451-8.9331-26.44-4.7868-2.9065-1.531-9.2371,2.4586-12.8229,8.7484-7.863,19.5664-8.746,30.5381-7.8973,6.2577.484,12.5781,1.6183,17.9129,5.5135,9.5161,6.9481,9.3644,15.5607-.9713,21.2328-4.2581,2.3368-5.5462,4.4591-3.7642,8.8646,1.84,4.55,1.2332,9.28.5545,14.0262-.7639,5.3412-.3554,11.7463,4.8224,13.5354,5.6672,1.9582,8.07-4.3157,10.4486-8.5956,1.7875-3.2167,2.0588-6.8259,2.3638-10.4666,1.1138-13.2972,10.8221-21.0031,24.1364-19.3775,21.5806,2.6348,39.2867,22.2306,42.9195,47.0714,2.4138,16.5054,1.2753,33.41,5.5086,49.68,3.5777,13.75,7.51,27.4079,11.2826,41.1072.5273,1.9144,1.9867,4.1747.3762,5.7361-1.92,1.8613-4.2712.007-6.2552-.735a31.4234,31.4234,0,0,1-15.8616-13.218c-2.6116-4.2388-5.1968-7.1815-10.5475-6.4971-1.052.1345-2.1821-.5044-3.294-.6483-8.93-1.1558-10.8153-11.7166-18.7606-14.0846-9.06-2.7-11.6249-10.62-14.7941-18.0452-2.0153-4.7219-3.79-9.5465-5.6728-14.3251Zm-23.4964-85.3889c-.37-2.6209-2.45-3.9581-4.8515-4.7562-10.7677-3.5782-21.5926-3.863-32.3222.0679-2.6717.9787-6.2874,2.4738-4.7045,6.0789,1.6238,3.6981,5.4928,5.95,9.4656,3.92,7.6611-3.9147,14.8617-3.9644,22.4917-.0287C2535.6,774.0888,2541.77,770.6043,2541.7033,766.8375Z" transform="translate(-5.7084 -7.4372)"/><path class="b411ae9d-f82d-40e5-a80a-eaab0ef1ef7a" d="M2524.1427,184.8685c12.2354,1.7969,8.77,3.3276,8.3375,12.225-.2624,5.4-.6495,10.8054-1.2948,16.1707-.6487,5.3926,3.7992,4.9136,6.6325,5.8309,32.9183,10.6576,55.5753,32.2283,67.1531,64.6671,21.8749,61.2893-18.9059,127.2062-83.5967,135.885a102.5146,102.5146,0,0,1-116.43-101.7043c-.0254-45.5856,28.2777-84.5706,71.8366-98.3693,5.8576-1.8556,8.991-3.7789,7.1955-10.6328-1.18-4.503-.765-9.4059-1.2774-14.1065-.5467-5.0164-1.2789-9.5014,6.3756-9.39,5.0448.0737,1.4561-3.6694,1.1436-5.334-1.667-8.881,2.26-17.2243,10.1684-20.7454a17.884,17.884,0,0,1,22.1609,6.2124C2526.0068,170.5755,2526.3852,175.15,2524.1427,184.8685Zm-7.8961-8.5755c-.143-5.508-2.71-8.77-8.1524-8.8154-5.138-.0425-8.6885,2.393-8.7735,7.9975-.0812,5.3521,2.7812,8.5388,8.1316,8.7045C2512.7255,184.3429,2515.7957,181.5377,2516.2466,176.293Z" transform="translate(-5.7084 -7.4372)"/><path class="b411ae9d-f82d-40e5-a80a-eaab0ef1ef7a" d="M2544.3966,716.2118c-43.4708-.7482-84.9393-9.9282-123.8931-29.6034-1.7107-.8641-4.5153-1.0389-4.5033-3.4594.0117-2.3413,2.739-2.702,4.4575-3.5612,18.9208-9.46,34.4252-22.9429,47.4821-39.4959,3.4916-4.4264,4.5479-6.8281-1.8819-9.5147-11.2049-4.6818-20.2621-12.51-28.0867-21.7842-4.8762-5.7794-4.72-6.6081,2.73-8.3559,25.5938-6.0038,46.2672-19.528,62.4695-40.1909,3.3491-4.2712,3.3777-6.4819-1.9447-8.8737-10-4.494-18.3491-11.3874-25.72-19.4873-3.0832-3.3881-3.693-5.4978,1.5722-7.6959,28.5956-11.9379,49.8341-32.0027,64.3238-59.3319.8944-1.687,1.16-4.4592,3.5306-4.466,2.3792-.0068,2.6576,2.7513,3.5474,4.4515,14.1287,26.9957,35.0464,46.7933,63.0319,58.8274,5.7916,2.49,6.16,4.7365,2.0628,8.9855-7.1014,7.3643-14.722,14.16-24.1387,18.2434-6.4443,2.7945-5.9687,5.4771-2.0986,10.2628,16.0211,19.8119,36.1276,33.069,60.9415,39.0828,8.7138,2.1118,8.8577,2.6541,2.8948,9.3162-8.0613,9.0065-17.08,16.8073-28.3309,21.5255-4.6561,1.9525-5.0028,3.828-1.93,7.7963,13.1939,17.0377,28.9993,30.86,48.2868,40.6138,1.7612.8907,4.5784,1.3334,4.7136,3.4049.1817,2.7819-3.0434,2.8817-4.9151,3.8192a271.0179,271.0179,0,0,1-102.983,28.3775C2558.812,715.6141,2551.6377,716.32,2544.3966,716.2118Z" transform="translate(-5.7084 -7.4372)"/><path class="b411ae9d-f82d-40e5-a80a-eaab0ef1ef7a" d="M2815.8566,498.3583c-10.1193-12.5745-11.3218-19.4462-5.4976-29.1927,6.0886-10.1887,20.7988-15.9763,34.5758-13.4176,5.1141.95,10.1093,2.4172,14.36,5.6633,13.0519,9.9685,13.81,22.6232,1.9089,36.8489,10.9028,4.5373,21.4329,9.4924,30.0091,17.7989,16.0637,15.5586,21.3257,35.6547,24.0177,56.7816,1.395,10.9484,2.0134,21.9942,3.322,32.9555,2.3258,19.4819,13.2127,34.7249,25.087,49.3956,2.9637,3.6617,5.73,7.4522,9.6778,10.3268,6.2121,4.5234,5.6781,8.5684-1.5561,11.7476-10.8613,4.773-22.5493,6.4147-34.194,7.7086q-22.17,2.4632-44.4578,3.8128c-4.6979.29-6.6106,2.0348-7.9,6.3733-3.8116,12.82-14.5878,21.0439-26.7636,21.03-12.5767-.0143-23.128-8.2872-26.9622-21.6218-1.1134-3.8719-2.9245-5.3875-6.9916-5.6976-22.6886-1.73-45.5-2.5165-67.7814-7.799-4.614-1.0939-9.2707-2.19-13.3675-4.6679-4.9332-2.9835-4.9917-6.2452-.7452-10.1975,22.8778-21.2929,36.8428-46.5211,37.726-78.7437.5884-21.4672,4.1966-42.7459,16.6418-61.2589C2786.3008,512.3168,2799.95,504.2314,2815.8566,498.3583Zm22.466-5.1547c8.81.0326,15.322-5.2563,15.5133-12.5993.191-7.3363-7.0043-13.4666-15.6381-13.3233-8.447.14-15.2993,6.01-15.2493,13.0624C2822.9989,487.4592,2829.8288,493.1722,2838.3226,493.2036Z" transform="translate(-5.7084 -7.4372)"/><path class="b411ae9d-f82d-40e5-a80a-eaab0ef1ef7a" d="M3171.9516,1010.8648c-20.1894-9.8886-40.7695-19.0842-60.4286-29.9468-10.8676-6.0048-19.5336-6.0566-30.38-.0182-18.3138,10.1958-37.5559,18.7261-56.4349,27.9006-1.4923.7252-2.9925,2.806-4.7921,1.2377-1.5451-1.3464-.5082-3.3678-.2608-5.13,3.4148-24.3269,6.6667-48.6781,10.3241-72.9682.6592-4.3779-.5458-7.1231-3.4576-10.1015q-25.3312-25.91-50.35-52.1245c-1.2791-1.3347-3.8457-2.385-2.8747-4.8448.7841-1.9864,3.0806-1.4648,4.7945-1.7649,23.3164-4.0848,46.62-8.2443,69.9651-12.16,5.2987-.8887,8.7569-3.0608,11.3375-8.09,10.7145-20.8819,21.88-41.5325,32.9125-62.2508.9369-1.7594,1.5579-4.4195,3.6319-4.5843,2.7384-.2175,3.1375,2.8574,4.1407,4.7335,10.8552,20.3011,21.9069,40.5055,32.2622,61.06,3.053,6.06,7.1214,8.2826,13.4047,9.3014,22.6972,3.68,45.3189,7.8276,67.9595,11.8523,1.8974.3373,4.5745-.2645,5.3085,2.09.7032,2.2558-1.6568,3.4857-3.0045,4.8775-16.4913,17.0315-32.9234,34.123-49.6265,50.9449-3.78,3.8071-4.6788,7.4978-3.8723,12.7042,3.6224,23.3856,6.8552,46.8322,10.11,70.2731C3172.9127,1005.9577,3173.692,1008.2741,3171.9516,1010.8648Z" transform="translate(-5.7084 -7.4372)"/><path class="b411ae9d-f82d-40e5-a80a-eaab0ef1ef7a" d="M3194.4629,530.1314c.5277,8.3362-.1152,16.501-8.8225,22.571-3.7781,2.6337-3.5162,9.0511-4.5589,13.8463-3.7234,17.1226-3.1892,34.5212-2.6654,51.88.2111,7.0015,3.4337,12.9143,7.4743,18.5246a51.863,51.863,0,0,1,9.9127,29.7052c.3773,17.0193-9.6726,27.4913-26.8685,27.7719-10.7745.1757-21.4407-1.7978-32.37-.2494-10.9053,1.545-21.2192,4.0643-30.6606,9.74a83.156,83.156,0,0,1-48.435,12.2755c-9.0894-.5062-17.94-2.243-25.8245-7.0864-16.3136-10.0208-20.61-28.6488-9.7794-44.4087,10.5561-15.3607,25.2329-25.562,42.7526-31.735,1.7006-.5992,3.4318-1.1123,5.1522-1.6545,18.6934-5.8917,21.2541-9.1232,20.9251-29.0845-.2522-15.3061-.6619-30.6454-4.0728-45.6963-.7775-3.4311-2.0342-6.2979-5.5584-7.9077-4.2144-1.925-6.39-5.676-7.2925-10.0412a47.0773,47.0773,0,0,1-.1488-18.8308c2.0056-9.9674,9.03-14.5308,21.1906-12.6792,16.8351,2.5633,33.7027,2.3688,50.61,2.465,8.6079.049,17.0716-1.13,25.57-2.18a48.58,48.58,0,0,1,9.4372-.4213c8.7234.64,13.5123,5.6448,14.0087,14.3736C3194.5925,524.0089,3194.4629,526.7238,3194.4629,530.1314Z" transform="translate(-5.7084 -7.4372)"/><path class="b411ae9d-f82d-40e5-a80a-eaab0ef1ef7a" d="M2820.0143,1011.6761c-30.9324-.0016-61.8653.1117-92.7968-.0418-20.2194-.1-35.498-16.681-33.5444-35.9806,1.4635-14.4586,15.8487-24.0639,28.1748-18.8076a12.8876,12.8876,0,0,1,8.2975,11.4362,9.4711,9.4711,0,0,1-5.8567,9.8073c-2.1627,1.0041-4.3884,1.5009-6.4645.1909-1.7625-1.112-3.9687-2.7429-.1139-4.08,2.7473-.9529,3.6567-2.74,2.4422-5.1916-1.2185-2.46-3.7015-2.3459-5.9682-1.8127-5.1164,1.2037-7.7116,7.7363-5.4869,14.0568,3.128,8.887,10.6512,12.0295,18.9538,13.157a101.5859,101.5859,0,0,0,24.34.1875c6.1268-.6494,11.4214-3.0041,13.9759-9.1459,2.2912-5.5091-.8479-11.5895-6.14-11.8279-2.9918-.1346-6.481.0013-4.7751,4.7791.4117,1.1532.9015,2.3417-.4035,2.8352a3.9657,3.9657,0,0,1-3.1539-.3906,7.3889,7.3889,0,0,1-2.9417-9.4979c1.2675-3.1212,1.0595-5.5471-1.1172-8.0566-7.4825-8.6263-10.9612-19.0358-13.2968-29.9746a30.9992,30.9992,0,0,0-2.6685-8.326c-2.6407-4.8529-6.8844-7.1191-12.4642-5.4722-3.2484.9587-4.936,3.465-3.9927,6.7881.9543,3.3616,3.545,3.6988,6.4753,2.2937,1.1524-.5525,2.3709-1.7886,3.4842-.1591.8088,1.1838.5057,2.5869.0273,3.9-1.7872,4.907-8.2046,7.3645-13.6768,5.1073-5.48-2.26-8.8293-6.4814-9.2964-12.3053-.5358-6.6811,1.7838-12.5743,7.4769-16.47a25.1137,25.1137,0,0,1,19.977-4.2083c3.1581.6753,5.1436.0195,4.659-3.4593-2.1108-15.1529-5.5144-29.8076-17.3571-40.8383-5.3419-4.9756-11.8336-5.46-18.4162-3.924-6.4863,1.513-10.0515,8.8271-7.8543,15.025a7.4222,7.4222,0,0,0,6.5319,5.136,4.0345,4.0345,0,0,0,3.9107-2.241c.8116-1.399.06-2.2913-1.0747-3.3779-3.23-3.0942-2.4273-6.0108,1.7883-7.3064,4.8755-1.4984,9.7291,2.1673,10.35,7.8173.75,6.8168-2.6958,12.2283-9.3715,14.7191a19.1075,19.1075,0,0,1-22.1526-7.1085c-7.1548-10.8119-3.7325-26.7749,7.6441-35.655,14.5909-11.3891,38.584-11.4316,56.84-.3468,15.3958,9.3484,23.6541,23.7329,29.1138,40.2082,1.9148,5.7784,3.5219,11.6818,5.8092,17.3089,6.1437,15.1142,17.7951,23.7611,33.6367,26.1243a83.3134,83.3134,0,0,0,31.6289-.887c9.4536-2.2344,16.2989-7.29,19.8416-16.5782,2.087-5.472,4.1625-10.9726,7.5519-15.8526,7.9511-11.4481,22.5856-16.6531,35.1821-12.1733,9.166,3.26,14.3359,10.0956,15.4111,19.63.7651,6.783-2.638,11.7317-8.6942,14.7035-4.9126,2.4106-9.2209.8015-13.066-2.5456-1.01-.8792-2.0854-2.0358-1.5272-3.4934.5085-1.3278,1.8155-.9647,2.9125-.6715,3.3027.8825,5.9372-.1786,7.3142-3.2186a7.2583,7.2583,0,0,0-.696-7.7289,8.7468,8.7468,0,0,0-8.9871-3.3735c-5.8846,1.192-10.2036,6.4971-10.8548,13.1149-.68,6.9151,1.1107,13.4751,2.95,19.97,4.28,15.1131,3.7188,29.0661-8.794,40.4611-2.0925,1.9055-2.1151,3.786-.3419,5.859,9.1537,10.7013,19.5168,18.8576,34.8344,16.9223,9.2919-1.174,14.5678-8.323,12.478-17.27-.9072-3.884-3.139-6.5012-7.5193-6.3343a4.09,4.09,0,0,0-4.0222,3.0658c-.6058,2.0358-.029,3.4073,2.2654,4.0459,4.81,1.3388,1.689,3.085-.0775,4.09-4.7956,2.7275-11.7346-2.4122-12.1739-8.8649-.492-7.2269,6.0768-13.6374,14.3757-14.0294,13.1333-.62,24.3248,12.4938,22.54,26.4117a33.8761,33.8761,0,0,1-33.9355,29.8528C2881.4276,1011.74,2850.7209,1011.6778,2820.0143,1011.6761Z" transform="translate(-5.7084 -7.4372)"/><path class="b411ae9d-f82d-40e5-a80a-eaab0ef1ef7a" d="M3206,251.9215c3.5792-.5991,6.6749-1.1853,9.7923-1.6154,2.0856-.2877,4.2921-.1292,5.1991,2.1122.9777,2.416-.9231,3.8314-2.6481,4.86a56.21,56.21,0,0,1-14.7532,6.6634c2.76,1.52,5.53,2.9651,8.2106,4.5615,1.1607.6913,2.2743,1.7274,1.957,3.2676-.383,1.8592-2.029,2.28-3.6186,2.4658-3.7626.4388-7.169-.8-10.2933-2.6924-6.157-3.73-11.5929-2.7282-16.5328,2.194-6.3773,6.3545-12.0908,13.4585-20.3969,17.6-2.1082,1.0511-2.074,3.2408-2.3407,5.2914-.3469,2.6678-.2215,5.8546-1.6536,7.8424-5.44,7.5508-1.5932,12.2174,3.484,18.05,15.0277,17.2647,17.9213,37.0986,8.7879,58.0105-9.217,21.1029-25.8234,33.6128-48.6923,36.0654-27.8724,2.9892-50.903-5.7627-65.0317-31.5279-12.6433-23.0564-8.3567-49.1738,10.8978-67.3817,3.175-3.0024,2.8609-5.0992,1.9931-9.1067-2.5507-11.7788-8.2683-20.7225-18.6432-26.8944-2.0247-1.2044-3.2722-3.6871-4.9406-5.5236-6.958-7.6589-10.9146-8.3905-20.1286-4.106-4.0545,1.8854-9.9938,4.8667-12.0078.0648-2.0809-4.9615,5.3374-5.1451,8.5234-8.02-4.4185-2.0277-8.9772-3.9378-13.35-6.2057-2.09-1.0837-4.9-2.4687-3.5308-5.5872,1.04-2.3673,3.5281-2.467,5.9056-2.0427,2.8706.5123,5.75.9765,8.7077,1.4754,1.3542-2.2242-3.4124-4.7629.0411-6.3466,2.7107-1.2431,5.2606.5876,7.2252,2.5681,8.46,8.5293,19.28,14.0768,28.03,22.2672,2.2414,2.0981,5.3509,3.2966,8.1254,4.79,2.7508,1.4806,5.0142,1.4126,6.6647-1.87a41.3767,41.3767,0,0,1,14.7709-16.4171c2.6718-1.7206,2.373-3.1163.44-5.2887-9.5678-10.7515-10.4323-22.5526-3.5209-34.9364,1.73-3.1,1.9094-4.8231-1.9556-5.8768-2.8887-.7876-5.41-2.2952-6.3574-5.4986-.7228-2.4446-1.2969-4.8819.7035-7.0071,1.8226-1.9363,4-1.4917,6.2871-.92,6.84,1.7091,7.2606,1.2608,6.1428-5.7156-.5345-3.3358-.8992-6.6994-1.4644-10.0295-1.62-9.5415.8036-14.3973,9.735-18.0549a44.0461,44.0461,0,0,1,21.1827-3.3712c8.3324.8274,11.9024,4.8191,12.36,13.1964.32,5.8517.9867,11.6937,1.072,17.5463.0794,5.4492,1.5905,8.0756,7.6729,6.2353,2.7121-.82,5.8293-.5629,8.74-.3988,3.5265.1987,7.1633,1.3271,7.8732,5.1705a6.9228,6.9228,0,0,1-5.6722,8.1124c-6.8969,1.385-5.9041,4.013-3.0914,8.9133,5.5607,9.6879,5.0161,19.94-1.7125,28.6356-4.61,5.9584-3.9662,9.0207,1.9381,12.9448a29.0957,29.0957,0,0,1,9.7891,11.9381c1.9651,4.147,4.4115,4.3291,8.0782,2.3615a56.5229,56.5229,0,0,0,12.7338-8.8693c7.1649-6.9053,16.4493-11.1,23.2733-18.4652,1.6208-1.75,4.3561-3.3926,6.702-1.8018C3209.5246,247.4669,3205.5279,249.34,3206,251.9215Z" transform="translate(-5.7084 -7.4372)"/><path class="b411ae9d-f82d-40e5-a80a-eaab0ef1ef7a" d="M2817.0189,267.5412c.2145-32.4847,24.2276-64.8988,55.4015-67.142,4.3767-.3149,6.5417-2.0152,5.7241-6.8487-.5594-3.3071-.1539-6.7658-.4817-10.1272-.2844-2.9168-.6294-5.527,3.4241-5.8348,2.9986-.2278,1.8991-2.1341,1.642-3.9371-1.1648-8.1645,4.786-15.6535,12.5341-15.9617,7.1389-.2839,13.41,6.1967,13.2909,14.0547-.0458,3.0069-.3316,5.0213,3.4189,6.73,3.8212,1.7414,1.86,6.5214,1.5345,9.9024-1.0238,10.65-1.1732,10.6358,9.5335,12.3968,25.2565,4.154,48.9071,31.9483,50.6678,58.3592,1.561,23.4142-7.6047,43.1541-19.4835,62.12-5.3831,8.5946-11.0848,17.03-17.1931,25.1223a309.0034,309.0034,0,0,0-37.2142,65.0227c-.9306,2.173-1.2673,5.5726-4.0147,5.7549-2.943.1953-3.4034-3.2668-4.2557-5.3861-11.1227-27.66-27.383-52.2281-44.9267-76.12-11.1043-15.1226-20.7892-31.1536-26.2573-49.3555A79.5812,79.5812,0,0,1,2817.0189,267.5412Z" transform="translate(-5.7084 -7.4372)"/><path class="b411ae9d-f82d-40e5-a80a-eaab0ef1ef7a" d="M3425.0574,642.2867c-1.1753,8.0426,1.36,15.2909,1.0985,22.6582-.0677,1.91,1.1766,4.3912-.9547,5.6035-1.7634,1.0032-3.2129-1.0745-4.8248-1.7314-6.9031-2.8132-10.9873-7.2076-10.2854-15.3919.3792-4.4221-.8313-8.9591-1.0312-13.4573-.2722-6.1272-2.9487-10.1391-9.8217-11.7958.6387,7.6543,1.2321,14.95,1.8675,22.243.1545,1.7736,1.0088,3.8794-.5769,5.1025-1.6974,1.3092-3.3174-.4939-4.9471-1.1052-7.9623-2.9865-11.4883-8.4771-10.9892-17.1694.3067-5.3429-.7294-10.7776-1.3335-16.1518-.3139-2.7933-9.407-9.8006-12.1061-9.5932-2.4356.187-2.0076,2.1016-2.0225,3.5427-.0423,4.0628-.0282,8.133.1747,12.19.2582,5.1617-1.163,6.9342-5.9754,3.521-3.4954-2.4793-7.1558-4.7279-10.7652-7.044-1.7552-1.1262-3.1148-1.6924-3.7771,1.3049-1.7109,7.7433.345,13.4868,6.8253,18.0022,2.9635,2.0649,5.7088,4.5816,8.9232,6.1206,7.9624,3.8123,9.8531,10.0624,9.1045,18.2924-.4261,4.6847-1.2563,5.7937-5.3176,2.8755-5.9864-4.3015-12.1142-8.4063-18.629-12.9036-1.963,6.4287-.8729,10.7124,4.5926,13.763,3.3328,1.86,6.0992,4.7794,9.493,6.4776,7.8495,3.9275,11.3214,9.8357,9.7173,18.5585-.3055,1.6617.9957,3.9026-1.1455,4.8648-1.6691.75-2.82-1.0129-4.0709-1.8662-5.0338-3.4329-10.0605-6.8783-15.0223-10.414-2.9893-2.13-4.4607-1.6587-4.4546,2.1865.0083,5.4189.0557,10.8406-.0965,16.2559-.1259,4.4734-1.821,8.4994-6.8129,8.4722-5.3084-.0289-6.1259-4.3391-6.09-8.77.0544-6.6948.0141-13.39.0141-21.5013-7.3809,5.0988-13.6735,9.3223-19.8266,13.74-4.03,2.8935-5.5739,2.527-5.9225-2.8946-.4878-7.584.763-13.6126,8.3546-17.3485,4.2018-2.0678,7.6111-5.7033,11.7406-7.971,5.5889-3.0693,6.5219-7.43,4.9027-14.1034-6.6972,4.64-12.9717,8.8306-19.0691,13.2649-4.3986,3.1988-5.4417,1.8-5.91-3.0958-.7371-7.7131,1.0471-13.5883,8.4367-17.3173,3.59-1.8116,6.4329-5.1837,10.0814-6.7835,8.4944-3.7249,7.3157-10.872,7.16-17.806-.0769-3.4347-1.8058-3.0243-3.9214-1.6423-4.1577,2.7156-8.3079,5.4427-12.4752,8.1436-3.32,2.1515-5.124,1.2786-4.94-2.7285.2739-5.9834.7172-11.9589,1.106-18.2181-13.908,5-14.829,6.2865-15.4771,19.1533-.2607,5.1738-.8453,10.3388-1.48,15.4834-.3809,3.0875-10.7885,11.0537-13.7146,10.7576-2.52-.255-1.878-2.2208-1.79-3.6147.3535-5.6194,1.0581-11.2224,1.2368-16.844.0692-2.1782,1.58-6.02-1.61-6.2594a6.4918,6.4918,0,0,0-6.9059,6.1071c-.56,5.381-1.3689,10.77-1.4206,16.1621-.0818,8.5144-3.3684,14.3552-11.4747,17.8331-4.6158,1.98-5.7524.8205-5.38-3.5832.64-7.558,1.3274-15.1122,2.1032-23.8965-6.6242,3.7923-12.2585,6.9822-17.8564,10.2348-4.0093,2.33-8.1951,3.9059-11.2637-.9215-3.2641-5.1351.6446-7.8687,4.475-10.1559,5.6-3.3439,11.3013-6.5188,17.7062-10.1943-6.8457-4.7131-14.17-6.8995-20.8087-10.3842-1.55-.8134-3.845-1.1474-4.0519-3.16-.2274-2.2138,2.3034-2.4423,3.638-3.52,6.2785-5.0724,12.6678-5.8554,19.7141-1.2,3.5433,2.341,7.82,3.5419,11.5221,5.68,5.5511,3.2056,10.1952,2.0672,15.2726-2.5486-7.3856-3.4448-14.2489-6.74-21.1938-9.8534-4.8725-2.1842-4.3353-3.8479-.229-6.6551,6.2935-4.3022,12.2928-6.2531,19.1917-1.4114,2.3707,1.6637,5.4929,2.2658,7.8373,3.9556,9.133,6.5829,16.7248,3.5133,24.5185-3.9766-5.17-2.6417-10.1343-5.1167-15.0321-7.7165-1.524-.8089-3.969-1.0343-4.0774-3.0993-.1339-2.55,2.6229-2.7545,4.2824-3.6544,4.7293-2.5648,9.5649-4.9336,14.49-7.4466-8.5254-8.7153-12.4879-9.51-22.5682-4.79-3.066,1.4355-6.4363,2.48-9.1009,4.4649-7.7993,5.8085-14.2727,2.3957-20.8954-2.17-3.3217-2.29-2.4528-3.7677.5113-5.17,7.2733-3.4411,14.5671-6.8393,22.1807-10.4086-5.0621-4.727-9.8148-6.0244-15.5856-2.45-3.6245,2.2451-8.0234,3.3008-11.4921,5.7241-7.8616,5.4921-14.3123,2.3324-20.8878-2.3324-3.3-2.341-2.3876-3.694.6515-5.1016,7.1229-3.2988,14.2121-6.67,22.6-10.6167-6.6527-3.8872-12.2567-7.0671-17.7611-10.4111-3.72-2.26-8.0317-4.7561-4.9921-10.0234,3.1082-5.3863,7.4783-3.472,11.6734-.9936,5.5881,3.3015,11.2468,6.4834,17.704,10.1928-.8315-8.596-1.557-16.1594-2.2971-23.7214-.4484-4.5816.3456-6.1391,5.5171-3.8634,8.0782,3.5546,11.6112,9.1062,11.4066,17.8036-.1158,4.9251.7867,9.8734,1.2147,14.8126.1571,1.8136.2179,3.7119,1.8111,4.9193,1.76,1.3339,3.6148,3.5491,5.8474,2.7132,2.3318-.8729,1.143-3.6185,1.0491-5.4681-.3085-6.0759-.9546-12.1338-1.3981-18.204-.1246-1.7065-.7656-3.87,2.4782-3.3,6.6949,1.1756,12.968,8.3053,13.45,15.2956q.5809,8.4324,1.4518,16.844c.5089,4.9687,8.6015,12.8875,13.15,12.8853,3.01-.0014,2.0423-2.4527,1.9722-3.9513-.2106-4.5009-.7474-8.9855-1.05-13.4836-.2884-4.2829,1.2882-5.4823,5.1031-2.9823,5.02,3.2895,10.1017,6.4838,15.5737,9.9857,1.9466-10.147,1.7037-18.33-8.55-22.8509-2.8326-1.2491-4.9728-4.0718-7.8069-5.3135-8.5068-3.7269-9.1823-10.6476-8.5775-18.5306.3265-4.2551,1.8153-4.6228,4.979-2.4215,6.452,4.4894,12.9294,8.9424,19.8354,13.7136,2.0036-6.4137.8894-10.7808-4.7972-14.0068-4.2993-2.439-8.1627-5.6428-12.2416-8.4753-7.6315-5.3-9.4227-9.92-7.6508-18.8959.91-4.608,3.1447-2.6365,5.2023-1.2317,6.3086,4.3074,12.5591,8.7,19.395,13.4505,1.7467-6.8513.6548-13.12.92-19.2924.1973-4.5885-.2282-9.9433,6.18-10.0005,6.6986-.06,6.6886,5.502,6.7844,10.3234.1155,5.8137.0273,11.6314.0273,18.3053,7.4872-3.3691,12.8189-8.2183,18.7646-12.0816,1.4731-.9571,2.979-2.8729,4.7038-2.1271,2.3306,1.0077.87,3.608,1.245,5.4806,1.667,8.3231-2.1218,13.5975-9.1933,17.4937-4.1263,2.2737-7.8071,5.3587-11.6761,8.096-1.66,1.1745-3.4794,2.3-3.641,4.6014-.1556,2.2148-1.105,5.04.6972,6.4485,1.9353,1.5128,3.5715-1.1035,5.1467-2.1472,4.8915-3.24,9.64-6.6955,14.4846-10.0085,1.4361-.9821,3.0711-2.4362,4.1485.472,2.281,6.1562-.8293,15.6163-6.4452,19.563-3.5085,2.4657-6.8,5.3505-10.5738,7.304-6.5637,3.3978-8.4253,8.4753-7.7874,15.5374.4263,4.7186,1.1335,6.5277,5.6923,3.2388,3.29-2.3735,6.8265-4.4031,10.22-6.6364,3.5166-2.3144,4.806-1.13,4.7475,2.7785-.0875,5.8485-.0227,11.6993-.0227,17.5237,10.8821-2.9669,13.2182-5.6116,14.381-16.3339.34-3.1365,1.2687-6.3274.9564-9.3943-.917-9.0032,3.0019-14.6184,11.1827-17.7246,1.5974-.6065,3.0744-2.5034,4.886-1.0174,1.3525,1.11.8026,2.9388.6393,4.4915-.636,6.05-1.3453,12.0924-1.918,18.148-.1215,1.284-.272,3.1365.4479,3.8074,1.4025,1.3072,2.84-.3813,4.2285-.9516,4.04-1.6586,4.5314-5.3114,4.89-8.9483.5092-5.1584.7987-10.3389,1.3273-15.495.8372-8.1654,5.2547-13.3546,12.8428-15.7832,3.62-1.1587,3.2229,1.1718,3.0872,3.19-.3927,5.845-.9917,11.6768-1.3418,17.5238-.1173,1.9593-1.008,4.5321.7184,5.7757,1.9422,1.3991,3.6961-.8905,5.384-1.7986,4.3707-2.3517,8.6249-4.919,12.9414-7.3725,3.9324-2.235,7.5821-2.02,9.8184,2.2085,2.1227,4.0137-.1011,6.8936-3.5336,8.97-3.09,1.8686-6.2435,3.6308-9.3642,5.4481-3.0682,1.7869-6.13,3.584-9.94,5.8125,8.0484,3.8531,15.0876,7.3628,22.25,10.6006,4.4534,2.0133,3.5184,3.4115.1673,5.7962-6.5767,4.68-12.8887,6.8269-20.3319,1.54-3.4366-2.441-7.9073-3.3772-11.5514-5.586-5.5-3.3336-10.0534-2.7622-14.75,2.6639,7.0592,3.3726,13.8427,6.7187,20.7192,9.8612,4.4792,2.0469,4.0969,3.6416.2764,6.2744-6.1764,4.2563-12.1142,6.6212-19.0843,1.6493-2.3435-1.6716-5.6014-2.076-7.91-3.78-9.2922-6.8591-17.0554-3.5311-25.0434,3.6027,5.5763,2.8915,10.8743,5.7227,16.25,8.3982,3.9241,1.9531,4.297,3.57.0325,5.6325-5.261,2.5443-10.3882,5.3651-15.6726,8.1181,8.4975,8.734,12.4234,9.5216,22.22,4.8021,3.2521-1.5668,6.9768-2.4621,9.7794-4.5931,7.5518-5.7421,13.7772-2.3372,20.2133,1.9343,3.4793,2.3092,3.221,3.8762-.4351,5.5165-3.4994,1.57-6.9081,3.34-10.3791,4.9755-3.4529,1.6265-6.9334,3.1939-10.9621,5.0445,4.0036,4.8629,8.0641,6.3729,13.5864,3.3554,4.1506-2.2681,8.9447-3.5109,12.774-6.1826,7.7558-5.4112,14.1967-2.7318,20.8644,1.9046,3.1566,2.1949,2.8691,3.6455-.2859,5.1716-7.0565,3.4131-14.1287,6.794-21.8983,10.5259,5.5316,4.7847,11.5587,7.3075,16.9568,10.7746,3.7316,2.3967,7.8214,4.9117,4.7441,10.1217-2.9575,5.0071-7.141,3.3979-11.1577,1.0576C3436.68,648.9129,3431.03,645.7115,3425.0574,642.2867Z" transform="translate(-5.7084 -7.4372)"/><path class="b411ae9d-f82d-40e5-a80a-eaab0ef1ef7a" d="M3398.2781,872.4915c10.8469,6.1724,20.602,9.4574,31.1887,9.7387,5.5881.1486,6.1684,2.3566,3.5133,6.6764-4.7188,7.6782-11.7053,12.2773-21.11,14.9163,9.3582,6.91,19.38,8.9439,29.5827,10.5311,6.8884,1.0716,7.2315,1.7613,3.2941,7.7645-13.7462,20.9585-33.4881,30.8687-58.275,30.96-4.2679.0157-7.195.2851-6.3512,5.5574.6861,4.2872-2.5837,10.9163,6.1807,10.4076.45-.026.9029-.002,1.3543.0047,17.19.2529,17.1845.2513,11.8281,16.9992-2.1987,6.8744-4.4706,13.7279-6.51,20.65-1.0575,3.59-3.118,5.0356-6.8731,5.0144q-28.7853-.1621-57.572-.0008c-3.7769.0212-5.7339-1.5-6.829-5.0615q-4.8717-15.846-10.1433-31.5676c-1.6121-4.7756.3036-6.1493,4.7136-6.0361,4.0609.1045,8.1333-.1431,12.19.0244,8.7924.3633,5.415-6.2322,6.118-10.4922.8843-5.3572-2.2122-5.4812-6.4024-5.4908-25.396-.0581-45.2431-10.53-59.01-32.11-2.3771-3.726-3.563-6.0863,2.81-6.6281,10.6088-.902,20.891-3.4482,30.5793-10.1518-7.9453-3.1553-15.2528-6.5317-19.7567-13.65-1.2858-2.0323-3.591-4.0938-2.4227-6.6411,1.1117-2.4237,3.9975-1.4906,6.145-1.6508,10.0776-.7509,19.402-3.8123,29.4788-9.4663-10.0224-.9656-16.8916-5.3147-21.652-12.7084-3.7117-5.7647-2.8935-7.1791,3.9415-7.6945a76.7543,76.7543,0,0,0,27.7187-7.3872c-9.2825-2.6815-16.0966-6.6751-20.4079-14.15-2.516-4.362-2.04-6.3415,3.5315-6.7471,20.5726-1.4979,35.0124-14.7268,38.8109-34.9655.6063-3.2308.5162-5.359-3.6594-4.9705-3.5465.33-4.8748-1.2261-2.5919-4.288,2.92-3.916,3.3495-7.5.2875-11.62-2.0633-2.7768-1.7026-5.3938,2.5628-5.1344,4.8612.2957,8.1986-1.3374,10.2444-5.8986,1.5436-3.4414,3.7476-3.1252,5.1369.0715,2.0092,4.6227,5.32,6.225,10.1769,5.8237,3.23-.2669,5.0578,1.3723,2.9241,4.4742-2.9019,4.2188-3.4241,7.9947-.1019,12.2614,1.93,2.4786.9233,4.4012-2.3229,4.2245-4.6859-.255-4.3968,2.2816-3.71,5.5892,4.2021,20.2339,18.3457,32.95,38.5232,34.507,5.88.4537,6.4946,1.7981,3.3807,7.1243-4.2305,7.2364-10.94,11.0591-20.04,13.65,9.2989,4.6,17.9486,6.3929,26.8337,7.4334,2.3364.2736,5.5459-.8779,6.6014,2.0295.891,2.4538-1.138,4.72-2.5748,6.6958C3414.7551,867.79,3408.42,872.0775,3398.2781,872.4915Z" transform="translate(-5.7084 -7.4372)"/><path class="b411ae9d-f82d-40e5-a80a-eaab0ef1ef7a" d="M3277.9192,174.57c.3117-2.3407-1.4515-4.9827.9827-6.4591,2.5723-1.56,3.7244,1.696,6.2,2.5376-1.7293-3.511-3.7708-6.5535-3.751-10.2435.0086-1.6034.2105-3.285,2.0158-3.8934,1.5241-.5136,2.4667.6614,3.4509,1.6037,5.38,5.15,8.3543,11.7191,10.8105,18.5475a84.1257,84.1257,0,0,1,4.9042,36.8366c4.89-1.16,6.293-4.0552,6.4049-8.0425.1686-6.0057-1.86-11.5336-3.5467-17.1435-1.039-3.4561-2.2382-6.8772-3.0316-10.39-.5626-2.4908-.3952-5.4007,2.381-6.39,2.8427-1.0128,4.52,1.4058,5.8232,3.5539a35.7235,35.7235,0,0,0,3.4831,5.5794c-1.1265-4.3136-2.4118-8.5944-3.3135-12.9545-.4617-2.2327-.1866-4.8663,2.34-5.7627,2.57-.9114,4.3823,1.0648,5.3788,3.0892,1.4812,3.0091,2.4786,6.2563,3.6414,9.2961.9669-2.93-1.0161-5.7468-1.2138-8.7573-.1508-2.2977-.7885-4.7048,1.9535-5.814,2.8767-1.1636,4.88.6263,6.2094,2.7884,4.9619,8.0672,5.979,16.8992,4.4633,26.0934-2.0572,12.4783-9.649,21.6436-18.2986,30.13a20.8594,20.8594,0,0,1-3.32,2.109c8.5552,3.2727,9.6215,9.2849,2.5657,14.9406-5.2874,4.238-7.354,8.01-5.15,14.6093.9116,2.73-.3048,6.2124-.7126,9.3318-1.0252,7.8431,1.6674,13.0912,8.8608,16.4643a49.3182,49.3182,0,0,0,20.406,4.2307c15.5775.2321,31.17-.2493,46.7393.1734,19.0837.518,34.1189,8.407,44.6044,24.9915,6.4928,10.2694,5.5164,21.082,4.4768,32.0787-.1655,1.7506-.767,6.1334-4.3845,2.0187-1.4906-1.6954-1.43-.2814-1.8412.78-1.8288,4.72-1.4872,8.9079,2.97,11.9728,6.74,4.6352,9.3114,10.562,6.8562,18.6867-1.1348,3.7555.2083,7.6762,1.4012,11.2946,3.39,10.2828,3.4156,21.43,8.1781,31.3478a6.0516,6.0516,0,0,1-.3349,5.8832c-4.8113,7.8077-10.9437,14.0363-20.3692,15.9986-1.5479.3223-3.206.66-4.3981-.81a4.0732,4.0732,0,0,1-.0419-5.0734c1.7966-2.57,3.9538-4.8916,6.0024-7.2809,2.21-2.5771,4.7077-5.0435,4.4442-8.8045-.8843-12.6227-1.8462-25.2523-8.2174-36.6289-1.1554-2.0632-1.9231-4.6251-5.7226-5.7409-.7,11.6541-9.814,16.5722-17.4883,23.1984-7.3652,6.3595-15.2,12.704-19.9836,21.6324-.2113.3943-.44,1.0158-.756,1.0828-7.4007,1.5685-13.24,7.3723-21.1112,7.711-2.559.11-3.612-1.2944-4.4452-3.3166-.8378-2.0338-1.0356-3.9657.7-5.61a10.4617,10.4617,0,0,1,2.7128-1.9963c14.6059-6.6612,24.8016-18.4675,35.4679-29.85,7.8944-8.4241,8.9625-17.7735,5.7231-28.2089-1.4153-4.5593-5.0522-6.3942-9.3425-6.5153a168.344,168.344,0,0,1-54.856-10.7339c-3.7386-1.4042-6.5817.1553-8.683,3.3332a18.8452,18.8452,0,0,0-3.2438,8.8181c-1.4462,17.2339-6.7332,34.0493-5.22,51.6325.5713,6.637-7.1233,17.1006-13.3372,19.5436-3.06,1.2031-6.4247,1.9853-8.8428-.7347-2.46-2.767.3258-5.2635,1.8836-7.0941,13.6972-16.0962,8.8838-35.3882,9.4394-53.72.094-3.0966-.87-6.2289-1.3968-9.336-.0682-.4024-.4435-.7527-1.3958-2.2824-3.0346,16.9131-10.2254,31.9637-9.4277,48.6259.2483,5.186-.57,9.18-5.3559,12.0518a10.9431,10.9431,0,0,0-5.3784,7.5073,4.126,4.126,0,0,1-4.238,3.6449c-3.026.1076-6.6658,1.76-8.771-1.5587-2.2794-3.593.9082-5.8924,3.0786-7.9932a29.26,29.26,0,0,0,9.1665-23.1813,103.1326,103.1326,0,0,1,3.14-29.4633c2.4251-9.6933.9205-18.8187-4.7716-27.7352-11.5541-18.099-14.6544-38.0631-10.1652-59.1271.235-1.1026.5745-2.1855.7641-3.2949,1.5443-9.0318,1.537-9.033-7.167-6.6438-5.16,1.4164-11.1665-1.2189-13.0467-5.8579-2.288-5.6447,1.8866-7.6546,5.7148-9.74a12.6993,12.6993,0,0,0,5.71-6.4619c2.0583-4.84,4.6328-9.2739,10.8833-11.9173-6.8676-1.9684-12.86-1.8153-18.0593-4.4839a30.4326,30.4326,0,0,1-6.2373-3.9952c-2.0488-1.8-3.8357-4.1409-2.3567-7.1284,1.5915-3.2143,4.2856-2.6623,7.0112-1.6173a23.4251,23.4251,0,0,0,2.7519.6583,85.44,85.44,0,0,1-2.485-8.7584c-.3774-2.16.5864-6.4287,1.4181-5.934,6.555,3.8981,7.7355-6.5665,12.41-4.5233,3.6782,1.6076,3.1,6.2663,2.9542,9.7719-.2568,6.1953,1.7942,11.0569,6.974,14.4773,2.075,1.37,4.3541,2.8522,6.8646,1.1846,2.2467-1.4924,1.87-4.06,1.5456-6.22-1.3059-8.6974-7.4933-14.7287-12.1541-21.5791-1.0081-1.4818-2.4705-2.6491-3.53-4.1027-2.0108-2.7591-4.1823-5.7019-2.2765-9.2722C3271.1007,172.3211,3274.7231,173.9458,3277.9192,174.57Z" transform="translate(-5.7084 -7.4372)"/><path class="b411ae9d-f82d-40e5-a80a-eaab0ef1ef7a" d="M2751.3734,348.8063c.2378,14.3911-5.6457,23.4762-12.4106,32.0618-8.5354,10.8324-17.4634,21.3675-20.6078,35.3386-.2632,1.1693-.6662,2.9528-2.4129,2.7149-1.6065-.2188-1.6819-1.91-1.9849-3.1994-2.768-11.7741-9.5053-21.3152-17.0145-30.4467a94.6716,94.6716,0,0,1-11.5238-16.677c-6.1609-11.9941-6.2788-23.8912,1.0144-35.3578,2.4708-3.8847,1.8325-5.35-2.1354-7.4813-23.76-12.763-35.5929-33.4148-34.7674-59.8029.894-28.5764,14.7685-49.8141,42.1767-60.5054,5.5689-2.1723,7.5662-4.2476,6.6343-10.6208-.7437-5.0863-4.4392-12.4243,4.46-15.3854.372-.1238.0852-2.4727-.0291-3.7733-.7341-8.3556,5.0706-15.41,12.9864-15.7372,7.8168-.3229,13.9675,5.8174,13.8615,14.1623-.0409,3.2184-.1627,5.3338,3.6452,7.2937,3.7654,1.9381,2.1693,7.225,1.3082,10.6029-2.002,7.8535.4265,11.2075,8.1088,14.3489,23.7511,9.7122,37.1849,28.1824,39.6916,53.6684,2.8025,28.493-8.0639,50.7469-33.16,65.2021-4.5918,2.6449-5.5856,4.3954-2.5914,9.03C2750.6327,340.4488,2751.3706,344.8843,2751.3734,348.8063Z" transform="translate(-5.7084 -7.4372)"/></g></svg>