<?xml version="1.0" encoding="UTF-8" standalone="no"?>
<!-- Created with Inkscape (http://www.inkscape.org/) -->

<svg
   xmlns:dc="http://purl.org/dc/elements/1.1/"
   xmlns:cc="http://creativecommons.org/ns#"
   xmlns:rdf="http://www.w3.org/1999/02/22-rdf-syntax-ns#"
   xmlns:svg="http://www.w3.org/2000/svg"
   xmlns="http://www.w3.org/2000/svg"
   xmlns:sodipodi="http://sodipodi.sourceforge.net/DTD/sodipodi-0.dtd"
   xmlns:inkscape="http://www.inkscape.org/namespaces/inkscape"
   width="6in"
   height="6in"
   viewBox="0 0 6 6"
   version="1.1"
   id="SVGRoot"
   inkscape:version="0.92.4 (5da689c313, 2019-01-14)"
   sodipodi:docname="staudt-wreath.svg">
  <title
     id="title3827">6&quot; x 6&quot; Decal</title>
  <sodipodi:namedview
     id="base"
     pagecolor="#ffffff"
     bordercolor="#666666"
     borderopacity="1.0"
     inkscape:pageopacity="0.0"
     inkscape:pageshadow="2"
     inkscape:zoom="3.9627442"
     inkscape:cx="242.70311"
     inkscape:cy="348.56409"
     inkscape:document-units="in"
     inkscape:current-layer="layer1"
     showgrid="false"
     inkscape:window-width="1920"
     inkscape:window-height="1017"
     inkscape:window-x="-8"
     inkscape:window-y="-8"
     inkscape:window-maximized="1"
     showguides="true"
     inkscape:guide-bbox="true"
     inkscape:snap-global="false">
    <sodipodi:guide
       position="0.2578125,7.6054687"
       orientation="1,0"
       id="guide3819"
       inkscape:locked="false" />
    <sodipodi:guide
       position="1.0078125,5.7539062"
       orientation="0,1"
       id="guide3821"
       inkscape:locked="false" />
    <sodipodi:guide
       position="0.76171875,0.24609375"
       orientation="0,1"
       id="guide3823"
       inkscape:locked="false" />
    <sodipodi:guide
       position="5.7539062,4.640625"
       orientation="1,0"
       id="guide3825"
       inkscape:locked="false" />
    <sodipodi:guide
       position="3,4.0305344"
       orientation="1,0"
       id="guide1473"
       inkscape:locked="false" />
    <sodipodi:guide
       position="0.2578125,3"
       orientation="0,1"
       id="guide1475"
       inkscape:locked="false" />
  </sodipodi:namedview>
  <defs
     id="defs3786" />
  <metadata
     id="metadata3789">
    <rdf:RDF>
      <cc:Work
         rdf:about="">
        <dc:format>image/svg+xml</dc:format>
        <dc:type
           rdf:resource="http://purl.org/dc/dcmitype/StillImage" />
        <dc:title>6&quot; x 6&quot; Decal</dc:title>
      </cc:Work>
    </rdf:RDF>
  </metadata>
  <g
     id="layer1"
     inkscape:groupmode="layer"
     inkscape:label="Layer 1">
    <path
       sodipodi:type="star"
       style="opacity:1;vector-effect:none;fill:none;fill-opacity:1;fill-rule:nonzero;stroke:#00ff00;stroke-width:0.014;stroke-linecap:butt;stroke-linejoin:miter;stroke-miterlimit:4;stroke-dasharray:none;stroke-dashoffset:0;stroke-opacity:1"
       sodipodi:sides="10"
       sodipodi:cx="3.2578135"
       sodipodi:cy="3.4687512"
       sodipodi:r1="1.1420224"
       sodipodi:r2="0.91361791"
       sodipodi:arg1="-2.2471398"
       sodipodi:arg2="-1.9329806"
       inkscape:flatsided="false"
       inkscape:rounded="0.25"
       inkscape:randomized="0"
       d="m 2.5429696,2.578126 c 0.076585,-0.06147 0.2993009,0.071073 0.3911329,0.036278 0.091832,-0.034795 0.1707967,-0.2816442 0.2688865,-0.2863586 0.09809,-0.00471 0.2003637,0.2334241 0.2951094,0.2592519 0.094746,0.025828 0.3037238,-0.1274632 0.3858511,-0.073622 0.082127,0.053842 0.024894,0.3066149 0.086364,0.3832001 0.06147,0.076585 0.3206387,0.075405 0.3554337,0.1672366 0.034795,0.091832 -0.1600837,0.2626892 -0.1553693,0.3607789 0.00471,0.09809 0.2150804,0.2494702 0.1892527,0.3442159 C 4.3338029,3.8638531 4.0757154,3.8875327 4.0218737,3.96966 3.968032,4.0517873 4.0492426,4.2979067 3.9726573,4.3593764 3.8960721,4.4208461 3.6733564,4.2883032 3.5815244,4.3230983 3.4896923,4.3578933 3.4107277,4.6047425 3.3126379,4.6094568 3.2145482,4.6141712 3.1122742,4.3760328 3.0175285,4.350205 2.9227828,4.3243773 2.7138047,4.4776682 2.6316774,4.4238265 2.5495501,4.3699848 2.606783,4.1172116 2.5453133,4.0406264 2.4838436,3.9640411 2.2246747,3.9652219 2.1898796,3.8733898 2.1550846,3.7815578 2.3499633,3.6107006 2.3452489,3.5126108 2.3405345,3.4145211 2.1301685,3.2631407 2.1559962,3.1683949 2.181824,3.0736493 2.4399115,3.0499697 2.4937532,2.9678424 2.5475949,2.8857151 2.4663843,2.6395957 2.5429696,2.578126 Z"
       id="path1380"
       transform="matrix(0.68106848,0,0,0.65246208,0.78120594,0.73677138)" />
    <path
       style="fill:#00ffff;fill-opacity:1;stroke-width:0.01041667"
       d="M 2.1359377,1.7736337 2.4232933,1.7809629 2.5632152,1.562689 2.8060512,1.663211 3.0315438,1.5020458 3.2238783,1.6734194 3.503523,1.5831184 3.6349634,1.8228436 3.8972848,1.8085398 3.9541128,1.9361683 3.735366,2.3843079 3.4644384,2.5063285 3.439594,2.3725348 3.1576827,2.4309592 3,2.2602913 2.7972989,2.45375 2.6197468,2.4189794 2.5136164,2.4225484 2.4873243,2.6548361 2.1073456,2.4581238 2.0781868,2.0208036 Z"
       id="rect2158"
       inkscape:connector-curvature="0"
       sodipodi:nodetypes="cccccccccccccccccccccc" />
    <ellipse
       style="opacity:1;vector-effect:none;fill:#00ffff;fill-opacity:1;fill-rule:nonzero;stroke:none;stroke-width:0.014;stroke-linecap:butt;stroke-linejoin:miter;stroke-miterlimit:4;stroke-dasharray:none;stroke-dashoffset:0;stroke-opacity:1"
       id="path1549"
       cx="2.3560851"
       cy="3.549495"
       rx="0.17730159"
       ry="0.17729603" />
    <ellipse
       style="opacity:1;vector-effect:none;fill:#00ffff;fill-opacity:1;fill-rule:nonzero;stroke:none;stroke-width:0.014;stroke-linecap:butt;stroke-linejoin:miter;stroke-miterlimit:4;stroke-dasharray:none;stroke-dashoffset:0;stroke-opacity:1"
       id="path1545"
       cx="3.5640407"
       cy="3.6911299"
       rx="0.17158219"
       ry="0.17157681" />
    <ellipse
       style="opacity:1;vector-effect:none;fill:#00ffff;fill-opacity:1;fill-rule:nonzero;stroke:none;stroke-width:0.014;stroke-linecap:butt;stroke-linejoin:miter;stroke-miterlimit:4;stroke-dasharray:none;stroke-dashoffset:0;stroke-opacity:1"
       id="path1543"
       cx="4.132443"
       cy="3.0457547"
       rx="0.1887404"
       ry="0.18873449" />
    <ellipse
       style="opacity:1;vector-effect:none;fill:#00ffff;fill-opacity:1;fill-rule:nonzero;stroke:none;stroke-width:0.014;stroke-linecap:butt;stroke-linejoin:miter;stroke-miterlimit:4;stroke-dasharray:none;stroke-dashoffset:0;stroke-opacity:1"
       id="path1551"
       cx="-0.48863828"
       cy="3.6361148"
       rx="0.18302099"
       ry="0.18301526"
       transform="rotate(-41.265019)" />
    <path
       style="color:#000000;font-style:normal;font-variant:normal;font-weight:normal;font-stretch:normal;font-size:medium;line-height:normal;font-family:sans-serif;font-variant-ligatures:normal;font-variant-position:normal;font-variant-caps:normal;font-variant-numeric:normal;font-variant-alternates:normal;font-feature-settings:normal;text-indent:0;text-align:start;text-decoration:none;text-decoration-line:none;text-decoration-style:solid;text-decoration-color:#000000;letter-spacing:normal;word-spacing:normal;text-transform:none;writing-mode:lr-tb;direction:ltr;text-orientation:mixed;dominant-baseline:auto;baseline-shift:baseline;text-anchor:start;white-space:normal;shape-padding:0;clip-rule:nonzero;display:inline;overflow:visible;visibility:visible;opacity:1;isolation:auto;mix-blend-mode:normal;color-interpolation:sRGB;color-interpolation-filters:linearRGB;solid-color:#000000;solid-opacity:1;vector-effect:none;fill:#00ffff;fill-opacity:1;fill-rule:nonzero;stroke:none;stroke-width:0.25;stroke-linecap:butt;stroke-linejoin:miter;stroke-miterlimit:4;stroke-dasharray:none;stroke-dashoffset:0;stroke-opacity:1;color-rendering:auto;image-rendering:auto;shape-rendering:auto;text-rendering:auto;enable-background:accumulate"
       d="m 2.9378552,3.6336734 -0.031511,0.8515937 0.1873104,0.00439 0.031511,-0.8515936 z"
       id="path1557"
       inkscape:connector-curvature="0"
       sodipodi:nodetypes="ccccc" />
    <path
       style="color:#000000;font-style:normal;font-variant:normal;font-weight:normal;font-stretch:normal;font-size:medium;line-height:normal;font-family:sans-serif;font-variant-ligatures:normal;font-variant-position:normal;font-variant-caps:normal;font-variant-numeric:normal;font-variant-alternates:normal;font-feature-settings:normal;text-indent:0;text-align:start;text-decoration:none;text-decoration-line:none;text-decoration-style:solid;text-decoration-color:#000000;letter-spacing:normal;word-spacing:normal;text-transform:none;writing-mode:lr-tb;direction:ltr;text-orientation:mixed;dominant-baseline:auto;baseline-shift:baseline;text-anchor:start;white-space:normal;shape-padding:0;clip-rule:nonzero;display:inline;overflow:visible;visibility:visible;opacity:1;isolation:auto;mix-blend-mode:normal;color-interpolation:sRGB;color-interpolation-filters:linearRGB;solid-color:#000000;solid-opacity:1;vector-effect:none;fill:#00ffff;fill-opacity:1;fill-rule:nonzero;stroke:none;stroke-width:0.25;stroke-linecap:butt;stroke-linejoin:miter;stroke-miterlimit:4;stroke-dasharray:none;stroke-dashoffset:0;stroke-opacity:1;color-rendering:auto;image-rendering:auto;shape-rendering:auto;text-rendering:auto;enable-background:accumulate"
       d="M 2.4449392,3.3155185 1.9412343,3.8790608 2.0656202,4.0195392 2.5678617,3.455997 Z"
       id="path1559"
       inkscape:connector-curvature="0"
       sodipodi:nodetypes="ccccc" />
    <path
       style="color:#000000;font-style:normal;font-variant:normal;font-weight:normal;font-stretch:normal;font-size:medium;line-height:normal;font-family:sans-serif;font-variant-ligatures:normal;font-variant-position:normal;font-variant-caps:normal;font-variant-numeric:normal;font-variant-alternates:normal;font-feature-settings:normal;text-indent:0;text-align:start;text-decoration:none;text-decoration-line:none;text-decoration-style:solid;text-decoration-color:#000000;letter-spacing:normal;word-spacing:normal;text-transform:none;writing-mode:lr-tb;direction:ltr;text-orientation:mixed;dominant-baseline:auto;baseline-shift:baseline;text-anchor:start;white-space:normal;shape-padding:0;clip-rule:nonzero;display:inline;overflow:visible;visibility:visible;opacity:1;isolation:auto;mix-blend-mode:normal;color-interpolation:sRGB;color-interpolation-filters:linearRGB;solid-color:#000000;solid-opacity:1;vector-effect:none;fill:#00ffff;fill-opacity:1;fill-rule:nonzero;stroke:none;stroke-width:0.25;stroke-linecap:butt;stroke-linejoin:miter;stroke-miterlimit:4;stroke-dasharray:none;stroke-dashoffset:0;stroke-opacity:1;color-rendering:auto;image-rendering:auto;shape-rendering:auto;text-rendering:auto;enable-background:accumulate"
       d="M 1.6123791,3.0823969 1.6639735,3.2610058 2.3908743,3.0853887 2.339418,2.9047139 Z"
       id="path1561"
       inkscape:connector-curvature="0"
       sodipodi:nodetypes="ccccc" />
    <path
       style="color:#000000;font-style:normal;font-variant:normal;font-weight:normal;font-stretch:normal;font-size:medium;line-height:normal;font-family:sans-serif;font-variant-ligatures:normal;font-variant-position:normal;font-variant-caps:normal;font-variant-numeric:normal;font-variant-alternates:normal;font-feature-settings:normal;text-indent:0;text-align:start;text-decoration:none;text-decoration-line:none;text-decoration-style:solid;text-decoration-color:#000000;letter-spacing:normal;word-spacing:normal;text-transform:none;writing-mode:lr-tb;direction:ltr;text-orientation:mixed;dominant-baseline:auto;baseline-shift:baseline;text-anchor:start;white-space:normal;shape-padding:0;clip-rule:nonzero;display:inline;overflow:visible;visibility:visible;opacity:1;isolation:auto;mix-blend-mode:normal;color-interpolation:sRGB;color-interpolation-filters:linearRGB;solid-color:#000000;solid-opacity:1;vector-effect:none;fill:#00ffff;fill-opacity:1;fill-rule:nonzero;stroke:none;stroke-width:0.25;stroke-linecap:butt;stroke-linejoin:miter;stroke-miterlimit:4;stroke-dasharray:none;stroke-dashoffset:0;stroke-opacity:1;color-rendering:auto;image-rendering:auto;shape-rendering:auto;text-rendering:auto;enable-background:accumulate"
       d="m 3.6250391,2.8974368 -0.014633,0.1858414 0.8690546,0.06159 0.014633,-0.1873046 z"
       id="path1569"
       inkscape:connector-curvature="0"
       sodipodi:nodetypes="ccccc" />
    <path
       style="color:#000000;font-style:normal;font-variant:normal;font-weight:normal;font-stretch:normal;font-size:medium;line-height:normal;font-family:sans-serif;font-variant-ligatures:normal;font-variant-position:normal;font-variant-caps:normal;font-variant-numeric:normal;font-variant-alternates:normal;font-feature-settings:normal;text-indent:0;text-align:start;text-decoration:none;text-decoration-line:none;text-decoration-style:solid;text-decoration-color:#000000;letter-spacing:normal;word-spacing:normal;text-transform:none;writing-mode:lr-tb;direction:ltr;text-orientation:mixed;dominant-baseline:auto;baseline-shift:baseline;text-anchor:start;white-space:normal;shape-padding:0;clip-rule:nonzero;display:inline;overflow:visible;visibility:visible;opacity:1;isolation:auto;mix-blend-mode:normal;color-interpolation:sRGB;color-interpolation-filters:linearRGB;solid-color:#000000;solid-opacity:1;vector-effect:none;fill:#00ffff;fill-opacity:1;fill-rule:nonzero;stroke:none;stroke-width:0.25;stroke-linecap:butt;stroke-linejoin:miter;stroke-miterlimit:4;stroke-dasharray:none;stroke-dashoffset:0;stroke-opacity:1;color-rendering:auto;image-rendering:auto;shape-rendering:auto;text-rendering:auto;enable-background:accumulate"
       d="M 3.5015999,3.4576539 3.3538002,3.5717926 3.8414338,4.1955302 3.9892335,4.0813915 Z"
       id="path1571"
       inkscape:connector-curvature="0"
       sodipodi:nodetypes="ccccc" />
    <path
       sodipodi:type="star"
       style="opacity:1;vector-effect:none;fill:none;fill-opacity:1;fill-rule:nonzero;stroke:#f50000;stroke-width:0.01663712;stroke-linecap:butt;stroke-linejoin:miter;stroke-miterlimit:4;stroke-dasharray:none;stroke-dashoffset:0;stroke-opacity:1"
       id="path1378"
       sodipodi:sides="20"
       sodipodi:cx="3"
       sodipodi:cy="3"
       sodipodi:r1="1.9942125"
       sodipodi:r2="1.7947912"
       sodipodi:arg1="-2.1776646"
       sodipodi:arg2="-2.020585"
       inkscape:flatsided="false"
       inkscape:rounded="0.25"
       inkscape:randomized="0"
       d="m 1.8627051,1.3618779 c 0.073443,-0.050989 0.2764488,0.060715 0.3569641,0.021843 0.080515,-0.038872 0.1193016,-0.2673122 0.2049066,-0.2931106 0.085605,-0.025798 0.2441565,0.1431707 0.3327434,0.1310815 0.088587,-0.012089 0.1960665,-0.2173628 0.2854539,-0.2154451 0.089387,0.00192 0.1879644,0.2116119 0.2759513,0.2274892 0.087987,0.015877 0.2536391,-0.1461364 0.338059,-0.1166904 0.08442,0.029446 0.1133731,0.2593391 0.1921473,0.3016288 0.078774,0.04229 0.2863838,-0.060605 0.3575725,-0.00651 0.071189,0.054092 0.027684,0.2816804 0.089535,0.3462428 0.06185,0.064562 0.2910952,0.030858 0.3420844,0.1043016 0.050989,0.073443 -0.060715,0.2764488 -0.021843,0.3569641 0.038872,0.080515 0.2673122,0.1193016 0.2931106,0.2049066 0.025798,0.085605 -0.1431707,0.2441565 -0.1310815,0.3327434 0.012089,0.088587 0.2173628,0.1960665 0.2154451,0.2854539 -0.00192,0.089387 -0.2116119,0.1879644 -0.2274892,0.2759513 -0.015877,0.087987 0.1461364,0.2536391 0.1166904,0.338059 -0.029446,0.08442 -0.2593391,0.1133731 -0.3016288,0.1921473 -0.04229,0.078774 0.060605,0.2863838 0.00651,0.3575725 -0.054092,0.071189 -0.2816804,0.027684 -0.3462428,0.089535 C 4.1770341,4.3578881 4.210738,4.5871329 4.1372949,4.6381221 4.0638518,4.6891112 3.8608461,4.5774071 3.7803308,4.6162795 3.6998154,4.6551519 3.6610292,4.8835917 3.5754242,4.9093901 3.4898191,4.9351885 3.3312677,4.7662194 3.2426808,4.7783086 3.154094,4.7903978 3.0466143,4.9956714 2.9572269,4.9937537 2.8678395,4.9918361 2.7692625,4.7821418 2.6812756,4.7662645 2.5932887,4.7503872 2.4276365,4.9124009 2.3432166,4.8829549 2.2587967,4.8535088 2.2298435,4.6236158 2.1510693,4.5813261 2.0722952,4.5390364 1.8646855,4.6419313 1.7934968,4.5878393 1.7223081,4.5337473 1.7658127,4.3061589 1.7039623,4.2415965 1.6421119,4.1770341 1.4128671,4.210738 1.3618779,4.1372949 1.3108888,4.0638518 1.4225929,3.8608461 1.3837205,3.7803308 1.3448481,3.6998154 1.1164083,3.6610292 1.0906099,3.5754242 1.0648115,3.4898191 1.2337806,3.3312677 1.2216914,3.2426808 1.2096022,3.154094 1.0043286,3.0466143 1.0062463,2.9572269 1.0081639,2.8678395 1.2178582,2.7692625 1.2337355,2.6812756 1.2496128,2.5932887 1.0875991,2.4276365 1.1170451,2.3432166 c 0.029446,-0.08442 0.2593391,-0.1133731 0.3016288,-0.1921473 0.04229,-0.078774 -0.060605,-0.2863838 -0.00651,-0.3575725 0.054092,-0.071189 0.2816804,-0.027684 0.3462428,-0.089535 0.064562,-0.06185 0.030858,-0.2910952 0.1043016,-0.3420844 z"
       transform="matrix(0.74924194,0,0,0.74921845,0.75227418,0.75234465)" />
    <ellipse
       style="opacity:1;vector-effect:none;fill:#00ffff;fill-opacity:1;fill-rule:nonzero;stroke:none;stroke-width:0.014;stroke-linecap:butt;stroke-linejoin:miter;stroke-miterlimit:4;stroke-dasharray:none;stroke-dashoffset:0;stroke-opacity:1"
       id="path1541"
       cx="3.6613259"
       cy="2.4271808"
       rx="0.17730159"
       ry="0.17729603" />
    <rect
       style="fill:#00ffff;fill-opacity:1;stroke-width:0.01041666"
       id="rect2158-3"
       width="1.260035"
       height="0.46212819"
       x="2.591171"
       y="3.4820647"
       transform="matrix(0.99641256,0.08462871,-0.08465807,0.99641006,0,0)" />
    <path
       id="path896"
       style="font-style:normal;font-variant:normal;font-weight:bold;font-stretch:normal;font-size:0.50875419px;line-height:1.25;font-family:Rockwell;-inkscape-font-specification:'Rockwell Bold';letter-spacing:0px;word-spacing:0px;fill:none;fill-opacity:1;stroke:#000000;stroke-width:0.01041667;stroke-opacity:1"
       d="m 3.2075394,4.0922162 0.059149,3.375e-4 q 0.00586,0.045053 0.035018,0.048049 0.045963,0.00472 0.062443,-0.092474 -0.029392,0.018706 -0.066211,0.014923 -0.038302,-0.00394 -0.06254,-0.035394 -0.023964,-0.03168 -0.018836,-0.081598 0.00518,-0.050412 0.037716,-0.080281 0.032536,-0.02987 0.08443,-0.024538 0.057825,0.00594 0.084747,0.050162 0.026946,0.043974 0.017222,0.1386178 -0.018256,0.177675 -0.1447785,0.1646749 -0.041268,-0.00424 -0.06557,-0.030211 -0.024029,-0.026192 -0.022791,-0.072264 z m 0.1616899,-0.093514 3.812e-4,-0.00371 q 0.00406,-0.039538 -0.00572,-0.068263 -0.00954,-0.028699 -0.035237,-0.03134 -0.016062,-0.00165 -0.027794,0.012877 -0.011462,0.014305 -0.014154,0.0405 -0.00249,0.024218 0.00646,0.041618 0.00895,0.017401 0.030944,0.019661 0.020263,0.00208 0.045117,-0.011347 z m -0.4213027,0.1557402 0.00566,-0.055107 0.047446,0.00488 0.023994,-0.2335223 -0.050412,-0.00518 0.00566,-0.055107 0.1260281,0.012949 -0.029657,0.2886293 0.044975,0.00462 -0.00566,0.055107 z M 2.7497783,4.1385778 q -0.057578,-0.00592 -0.083301,-0.054508 -0.025451,-0.048814 -0.016615,-0.1348095 0.00866,-0.084266 0.042813,-0.1274548 0.034427,-0.04341 0.093487,-0.037342 0.058813,0.00604 0.083719,0.055301 0.024931,0.04901 0.016222,0.1337703 -0.00886,0.086243 -0.043928,0.1285886 -0.035067,0.042346 -0.092397,0.036454 z m 0.00524,-0.055899 q 0.026441,0.00272 0.037677,-0.038582 0.01124,-0.041298 0.015074,-0.078612 0.00614,-0.059801 -9.75e-5,-0.091409 -0.00597,-0.031829 -0.027221,-0.034012 -0.021499,-0.00221 -0.033892,0.028482 -0.012366,0.030445 -0.018384,0.08901 -0.00614,0.059801 -1.512e-4,0.091383 0.00624,0.031607 0.027,0.03374 z m -0.1665165,-0.066055 -0.013222,0.09953 -0.2201796,-0.022623 q 0.00462,-0.044975 0.014323,-0.06895 0.00995,-0.023949 0.028896,-0.045478 0.01919,-0.021502 0.051934,-0.046106 0.042998,-0.032042 0.057081,-0.047576 0.014355,-0.015756 0.016538,-0.037007 0.00162,-0.015816 -0.00672,-0.026912 -0.00832,-0.011343 -0.022409,-0.01279 -0.02051,-0.00211 -0.032147,0.013928 -0.011366,0.015813 -0.016783,0.053964 l -0.06271,-0.00944 q 0.0051,-0.04967 0.02252,-0.073352 0.017417,-0.023682 0.044038,-0.032435 0.026621,-0.00875 0.056522,-0.00568 0.049176,0.00505 0.074307,0.035105 0.025378,0.030077 0.021214,0.070604 -0.00223,0.021746 -0.012783,0.039392 -0.010285,0.017423 -0.024673,0.02868 -0.01412,0.011036 -0.049398,0.031134 -0.053054,0.030259 -0.067789,0.049722 -0.014735,0.019463 -0.018585,0.03505 l 0.1000809,0.010283 0.0046,-0.04473 z M 3.6910704,2.1267714 V 1.9145725 h -0.05839 v 0.072225 H 3.5976865 V 1.8791721 H 3.8269754 V 1.9867974 H 3.7919819 V 1.9145725 H 3.733795 v 0.2121989 h 0.036824 v 0.0354 H 3.6548562 v -0.0354 z m -0.3580731,0 V 1.9145725 h -0.038452 v -0.0354 h 0.1094564 q 0.04537,0 0.069784,0.00468 0.024617,0.00468 0.047607,0.021159 0.02299,0.016479 0.036621,0.04537 0.013835,0.028686 0.013835,0.065511 0,0.041911 -0.013224,0.072835 -0.013224,0.030925 -0.03479,0.046183 -0.021362,0.015259 -0.051066,0.021362 -0.0295,0.0059 -0.075277,0.0059 h -0.102946 v -0.0354 z m 0.042725,0 h 0.02238 q 0.037435,0 0.059204,-0.00468 0.021973,-0.00468 0.037028,-0.015869 0.015055,-0.011393 0.024414,-0.03418 0.00936,-0.022786 0.00936,-0.053711 0,-0.036825 -0.015462,-0.062459 -0.015259,-0.025635 -0.039266,-0.033366 -0.023804,-0.00793 -0.073446,-0.00793 H 3.3757233 Z M 3.0897722,1.9145725 v 0.1416016 q 0,0.032959 0.00326,0.045573 0.00346,0.012614 0.016886,0.021566 0.013428,0.00875 0.034587,0.00875 0.025228,0 0.038656,-0.00753 0.013428,-0.00773 0.0177,-0.020548 0.00448,-0.013021 0.00448,-0.045776 V 1.9145725 h -0.032755 v -0.0354 h 0.1106771 v 0.0354 h -0.0354 v 0.1479086 q 0,0.029907 -0.00264,0.043538 -0.00244,0.013428 -0.013631,0.02828 -0.01119,0.014649 -0.031535,0.0236 -0.020345,0.00875 -0.049438,0.00875 -0.032145,0 -0.053508,-0.00814 -0.021362,-0.00834 -0.032145,-0.022176 -0.010783,-0.013835 -0.014445,-0.0295 -0.00346,-0.015666 -0.00346,-0.048625 V 1.9145725 H 3.012054 v -0.0354 h 0.1112875 v 0.0354 z M 2.9231461,2.0626845 H 2.8214208 l -0.021769,0.064087 h 0.034383 v 0.0354 h -0.111491 v -0.0354 h 0.03418 L 2.8340348,1.9111138 H 2.7996516 V 1.8791721 H 2.944305 v 0.031942 H 2.909108 L 2.98825,2.1267717 h 0.031738 v 0.0354 h -0.11088 v -0.0354 H 2.944305 Z M 2.9125667,2.0295221 2.8749283,1.9111138 h -0.00387 L 2.8319953,2.0295221 Z M 2.5948786,2.1267714 V 1.9145725 h -0.05839 v 0.072225 H 2.5014948 V 1.8791721 h 0.2292888 v 0.1076253 h -0.034994 v -0.072225 h -0.058187 v 0.2121989 h 0.036825 v 0.0354 H 2.5586644 v -0.0354 z m -0.3051759,0.0354 V 2.0594293 h 0.0354 v 0.025024 q 0.025431,0.046183 0.066528,0.046183 0.020955,0 0.0354,-0.012817 0.014445,-0.012817 0.014445,-0.033569 0,-0.020142 -0.0118,-0.02889 -0.0118,-0.00895 -0.044556,-0.0177 -0.038045,-0.010172 -0.056356,-0.019124 -0.01831,-0.00916 -0.029297,-0.025838 -0.010783,-0.016886 -0.010783,-0.039876 0,-0.035604 0.0236,-0.056763 0.023804,-0.021362 0.059611,-0.021362 0.033976,0 0.06307,0.021973 v -0.018921 h 0.034587 v 0.085856 h -0.034587 v -0.019735 q -0.021769,-0.032756 -0.060018,-0.032756 -0.023193,0 -0.035604,0.010783 -0.01241,0.010579 -0.01241,0.025431 0,0.011393 0.00631,0.020142 0.00631,0.00855 0.016073,0.012614 0.00977,0.00407 0.038452,0.011393 0.037435,0.00977 0.054321,0.018311 0.016886,0.00834 0.029093,0.028076 0.012207,0.019735 0.012207,0.04537 0,0.036214 -0.025635,0.059815 -0.025431,0.0236 -0.06307,0.0236 -0.038656,0 -0.06958,-0.027873 v 0.023397 z m 0.017046,0.1507029 a 0.09052281,0.09051998 0 0 1 -0.090523,0.09052 0.09052281,0.09051998 0 0 1 -0.090523,-0.09052 0.09052281,0.09051998 0 0 1 0.090523,-0.09052 0.09052281,0.09051998 0 0 1 0.090523,0.09052 z m 1.3478134,1.3782544 a 0.09052281,0.09051998 0 0 1 -0.090523,0.09052 0.09052281,0.09051998 0 0 1 -0.090523,-0.09052 0.09052281,0.09051998 0 0 1 0.090523,-0.09052 0.09052281,0.09051998 0 0 1 0.090523,0.09052 z M 4.2286845,3.0400348 a 0.09052281,0.09051998 0 0 1 -0.090523,0.09052 0.09052281,0.09051998 0 0 1 -0.090523,-0.09052 0.09052281,0.09051998 0 0 1 0.090523,-0.09052 0.09052281,0.09051998 0 0 1 0.090523,0.09052 z M 2.4466074,3.5494943 a 0.09052281,0.09051998 0 0 1 -0.090523,0.09052 0.09052281,0.09051998 0 0 1 -0.090523,-0.09052 0.09052281,0.09051998 0 0 1 0.090523,-0.09052 0.09052281,0.09051998 0 0 1 0.090523,0.09052 z M 2.0989226,2.9957212 a 0.09051998,0.09052281 48.734981 0 1 -0.00834,0.1277446 0.09051998,0.09052281 48.734981 0 1 -0.1277449,-0.00834 0.09051998,0.09052281 48.734981 0 1 0.00834,-0.1277446 0.09051998,0.09052281 48.734981 0 1 0.1277449,0.00834 z M 3.751848,2.4328995 a 0.09052281,0.09051998 0 0 1 -0.090523,0.09052 0.09052281,0.09051998 0 0 1 -0.090523,-0.09052 0.09052281,0.09051998 0 0 1 0.090523,-0.09052 0.09052281,0.09051998 0 0 1 0.090523,0.09052 z"
       inkscape:connector-curvature="0" />
  </g>
</svg>
